<svg xmlns="http://www.w3.org/2000/svg" viewBox="246.9 76.8 292.2 255.4"><style>.st0{fill:none;stroke:#000000;stroke-width:5;stroke-miterlimit:10;}</style><g id="logo-graphic"><path d="M374.8 327.8h1.3v1.7c0 2.1-.9 2.6-2.1 2.6-1.2 0-2.1-.5-2.1-2.6V322c0-2.1.9-2.6 2.1-2.6 1.2 0 2.1.5 2.1 2.6v4.3h-2.9v3.4c0 .8.3 1.2.8 1.2s.8-.4.8-1.2v-1.9zm0-6c0-.8-.3-1.2-.8-1.2s-.8.4-.8 1.2v3.2h1.6v-3.2zm3.7 7.5c0 1.1.1 1.6.8 1.6.7 0 1-.5 1-1.5 0-3.6-3.1-2.6-3.1-7 0-2.4.9-2.9 2.2-2.9 1.5 0 2.2.6 2.2 2.8v1.5h-1.3v-1.4c0-1.3-.2-1.6-.9-1.6s-.9.3-.9 1.5c0 4 3.1 2.6 3.1 7 0 2.3-.8 2.9-2.3 2.9-1.6 0-2.1-.8-2.1-3V328h1.3v1.3zm7.3 2.6c-.3.1-.6.1-.9.1-1.5 0-1.8-.9-1.8-3.3v-8h-1v-1.2h1v-3h1.3v3h1.4v1.2h-1.4v8.6c0 1.1.1 1.5.9 1.5h.5v1.1zm1.7.2c-.5 0-.9-.4-.9-.9s.4-.9.9-.9.9.4.9.9c0 .4-.4.9-.9.9zm4.9-.2V330c0-3.1 3.8-7 3.8-9.9v-2.3c0-1.2-.6-1.6-1.2-1.6s-1.2.4-1.2 1.6v2.9h-1.3v-2.6c0-2.4 1.1-3.2 2.5-3.2 1.5 0 2.6.8 2.6 3.2v2.2c0 3-3.7 7.2-3.7 10.2h3.3v1.3h-4.8zm6.6-13.4c0-2.8 1.1-3.5 2.6-3.5s2.6.7 2.6 3.5v10.2c0 2.8-1.1 3.5-2.6 3.5s-2.6-.7-2.6-3.5v-10.2zm3.7-.6c0-1.1-.5-1.6-1.2-1.6s-1.2.5-1.2 1.6v11.4c0 1.1.5 1.6 1.2 1.6s1.2-.5 1.2-1.6v-11.4zm4.4 14v-15l-2 .8v-1.3l2.2-1.1h1.1v16.6h-1.3zm7.2-7.8c0-1.6-.6-1.8-1.1-1.8-.7 0-1.3.5-1.3 1.8h-1.3v-8.8h4.6v1.3H412v5.7c.3-.8 1.1-1.2 1.8-1.2 1 0 2 .8 2 2.8v4.9c0 2.3-.9 3.3-2.5 3.3s-2.6-.9-2.6-3.3v-1.4h1.3v1.8c0 1.3.6 1.7 1.2 1.7s1.2-.5 1.2-1.7v-5.1z"/><g id="base"><g id="laurel-svg"><path d="M280.7 218.6c-7.3 4.1-11 9.6-9.4 17.3.9-3.7 2.9-7 5.8-10-.7 4.1-2.1 7.7-4.5 10.6 7.1-3.3 9.3-9.6 8.1-17.9zM319.3 284.3c-3.5 7.5-3.3 14.2 2.5 19.6-1.4-3.5-1.7-7.3-1.1-11.5 1.8 3.7 2.8 7.5 2.6 11.2 3.6-6.9 1.8-13.3-4-19.3zM310.1 275.2c-4.3 7.1-4.7 13.8.4 19.7-1.1-3.6-.9-7.5 0-11.5 1.5 3.9 2 7.7 1.4 11.4 4.6-6.4 3.3-13-1.8-19.6zM294.9 254.5c-5.7 6.1-7.5 12.5-3.6 19.4-.3-3.8.6-7.5 2.4-11.3.6 4.1.4 8-1 11.5 5.6-5.5 5.8-12.1 2.2-19.6zM302 265.2c-5 6.7-6.2 13.2-1.6 19.7-.7-3.7-.2-7.5 1.2-11.5 1 4 1.2 7.9.2 11.5 5.1-5.9 4.6-12.6.2-19.7zM288.9 243c-6.3 5.5-8.7 11.7-5.6 18.9.1-3.8 1.4-7.4 3.6-11 .2 4.2-.4 8-2.2 11.3 6.2-4.7 7.1-11.3 4.2-19.2zM284.2 231c-6.8 4.8-9.9 10.7-7.6 18.2.5-3.7 2.2-7.2 4.7-10.5-.2 4.2-1.3 7.9-3.3 11 6.7-4.1 8.2-10.6 6.2-18.7zM333.8 311.6c-1.8-3.3-2.5-7.1-2.3-11.3 2.2 3.5 3.6 7.1 3.7 10.9 3-7.3.5-13.4-5.9-18.8-2.7 7.8-1.8 14.4 4.5 19.2zM281 264.5c-3.8-.1-7.4-1.4-11-3.6 4.2-.2 8 .4 11.3 2.2-4.8-6.2-11.4-7.1-19.3-4.2 5.6 6.2 11.8 8.7 19 5.6zM278.6 205.9c-7.7 3.3-11.9 8.4-11.2 16.3 1.2-3.6 3.6-6.6 6.8-9.3-1.1 4-2.9 7.5-5.5 10.1 7.4-2.7 10.2-8.8 9.9-17.1zM321.8 317.2c3.5-2.2 7.1-3.6 10.9-3.7-7.3-3-13.5-.5-18.8 5.9 7.9 2.7 14.5 1.8 19.2-4.5-3.3 1.8-7.1 2.5-11.3 2.3zM289.2 276.6c-3.8.3-7.5-.6-11.3-2.4 4.1-.6 8-.4 11.5 1-5.4-5.7-12.1-5.9-19.6-2.2 6.1 5.7 12.5 7.5 19.4 3.6zM274.1 251.5c-3.7-.5-7.2-2.2-10.5-4.7 4.2.2 7.9 1.3 11 3.3-4.2-6.7-10.6-8.2-18.7-6.2 4.8 6.9 10.7 10 18.2 7.6zM298.6 287.8c-3.7.7-7.5.2-11.5-1.2 4-1 7.9-1.2 11.5-.2-6-5.1-12.7-4.6-19.7-.2 6.7 5.1 13.3 6.2 19.7 1.6zM297.7 298c3.9-1.5 7.7-2 11.4-1.4-6.5-4.5-13.1-3.2-19.6 1.9 7.1 4.3 13.8 4.7 19.7-.4-3.6 1-7.5.9-11.5-.1zM309.2 308.2c3.7-1.8 7.5-2.8 11.2-2.6-6.9-3.8-13.3-1.9-19.3 3.9 7.5 3.5 14.2 3.3 19.6-2.5-3.5 1.5-7.3 1.8-11.5 1.2zM268.6 238c-3.7-.9-7-2.9-10-5.8 4.1.7 7.7 2.1 10.6 4.5-3.4-7.1-9.7-9.3-18-8.1 4.1 7.2 9.7 10.9 17.4 9.4zM291.6 108.6c2.7-1.1 5.6-1.2 8.7-.7-2.8 1.4-5.7 2.1-8.5 1.8 5.2 2.9 10.1 1.6 14.7-2.7-5.7-2.8-10.8-2.7-14.9 1.6zM272.6 186.1c-1.9 3.7-4.3 6.7-7.5 8.7 7.8-1.1 11.8-6.4 13.2-14.6-8.2 1.6-13.4 5.8-14.3 13.6 2-3.2 4.9-5.7 8.6-7.7zM301.3 114.8c-6.4-2.5-11.9-2-16.1 3.1 2.8-1.4 6-1.8 9.4-1.6-3 1.7-6 2.7-9.2 2.7 6 2.8 11.2.9 15.9-4.2zM298.3 100.3c2.5-.8 5.1-.7 7.9-.1-2.7 1-5.3 1.5-7.9 1 4.5 3 9 2.1 13.5-1.4-4.8-2.9-9.4-3.1-13.5.5zM264.5 223.9c-3.6-1.2-6.6-3.6-9.3-6.8 4 1.1 7.5 2.9 10.1 5.5-2.7-7.4-8.7-10.3-17-9.9 3.2 7.7 8.4 11.9 16.2 11.2zM305.5 92.8c2.3-.5 4.6-.3 7.1.5-2.5.7-4.8.9-7.1.4 3.8 3 7.9 2.5 12.2-.4-4.3-2.9-8.4-3.5-12.2-.5zM311.9 87.5c2.6 2.3 5.5 2.1 8.6.3-2.9-2.3-5.7-2.8-8.6-.9 1.6-.3 3.3 0 5 .7-1.7.3-3.4.4-5-.1zM296.6 123.5c-7.3-2.2-13.3-1.1-17.4 4.9 3-1.8 6.4-2.5 10.2-2.6-3.1 2.2-6.4 3.6-9.8 3.8 6.8 2.5 12.4-.1 17-6.1zM266.1 209c7.7-1.9 11.1-7.6 11.7-15.9-8 2.5-12.7 7.1-12.8 15 1.6-3.4 4.3-6.2 7.7-8.6-1.5 3.9-3.6 7.1-6.6 9.5zM274.2 139.3c2.8-2 6.2-3.1 10-3.5-2.9 2.4-6 4.1-9.4 4.7 7 1.9 12.3-1.2 16.4-7.6-7.6-1.5-13.5.1-17 6.4zM266.6 165.1c2.5-2.7 5.8-4.5 9.7-5.7-2.6 3.2-5.5 5.5-9 6.8 7.7.5 12.6-3.8 15.6-11.3-8.1 0-13.9 2.9-16.3 10.2zM273.8 172.7c-2.3 3.5-5 6.2-8.4 7.9 7.9-.3 12.4-5.2 14.7-13.2-8.3.8-13.9 4.4-15.6 12.1 2.3-3 5.5-5.2 9.3-6.8zM270.1 151.1c2.7-2.4 6.1-3.8 10.1-4.6-2.8 2.8-5.9 4.9-9.4 5.8 7.5 1.3 12.7-2.4 16.4-9.5-8-.9-14 1.4-17.1 8.3zM318.4 80.4c-1 1.5-2.2 2.7-3.7 3.4 3.4 0 5.4-2.1 6.5-5.6-3.6.3-6.1 1.8-6.9 5.1 1-1.3 2.4-2.2 4.1-2.9zM261.2 180.2c-3-2.3-5.2-5.5-6.8-9.3 3.5 2.3 6.2 5 7.9 8.4-.3-7.9-5.2-12.4-13.2-14.7.8 8.3 4.4 13.9 12.1 15.6zM263.3 165.5c-2.7-2.5-4.5-5.8-5.7-9.7 3.2 2.6 5.5 5.5 6.9 9 .5-7.7-3.8-12.6-11.3-15.6-.2 8 2.8 13.9 10.1 16.3zM266.9 151.1c-2.4-2.7-3.8-6.1-4.6-10.1 2.8 2.8 4.9 5.9 5.8 9.4 1.3-7.4-2.4-12.7-9.5-16.4-.9 8 1.4 14 8.3 17.1zM271.1 139.1c-2-2.8-3.1-6.2-3.5-10 2.4 2.9 4.1 6 4.7 9.5 1.9-7-1.2-12.3-7.6-16.4-1.5 7.5.1 13.3 6.4 16.9zM261.9 209.5c-3.4-1.6-6.2-4.3-8.6-7.7 3.9 1.5 7.1 3.6 9.5 6.6-1.9-7.7-7.6-11.1-15.9-11.7 2.4 7.9 7.1 12.7 15 12.8zM260.8 194.8c-3.2-1.9-5.7-4.9-7.7-8.5 3.7 1.9 6.7 4.3 8.7 7.5-1.1-7.8-6.4-11.8-14.6-13.2 1.6 8.1 5.8 13.4 13.6 14.2zM288.2 98.9c1.4 2.8 2.1 5.7 1.8 8.6 2.9-5.2 1.6-10.1-2.7-14.7-2.8 5.7-2.7 10.7 1.7 14.9-1.1-2.7-1.3-5.6-.8-8.8zM276.2 127.8c-1.8-3-2.5-6.4-2.6-10.2 2.2 3.1 3.6 6.4 3.8 9.8 2.5-6.8-.1-12.3-6.1-17-2.2 7.4-1.1 13.4 4.9 17.4zM303.7 84.3c.7 2.5.9 4.8.4 7.1 3-3.8 2.5-7.9-.4-12.2-2.9 4.2-3.5 8.3-.5 12.2-.5-2.2-.3-4.6.5-7.1zM310.7 80.4c.4 1.8.5 3.5 0 5 2.3-2.6 2.1-5.5.3-8.6-2.3 2.9-2.8 5.7-.9 8.6-.3-1.6 0-3.3.6-5zM295.8 91.2c1 2.7 1.5 5.3 1 7.9 3-4.5 2.1-9-1.4-13.5-2.9 5-3.2 9.5.5 13.6-.8-2.6-.7-5.2-.1-8zM282.4 117.1c-1.4-2.8-1.8-6-1.6-9.4 1.7 3 2.7 6 2.7 9.2 2.7-6 .8-11.1-4.2-15.8-2.5 6.4-2 11.9 3.1 16z"/><path d="M336.5 313.4c-11.1-6-21.3-13.4-30.3-22.1-43.1-41.3-55-105.4-29.6-159 8.6-18.1 21.1-34.4 36.9-47.5.4-.4.2-.6.2-.7 0 0-.3-.3-.7.1-15.9 13.2-28.5 29.5-37.1 47.8-25.5 54-14.2 118.6 29.3 160.4 9.1 8.7 19.4 16.2 30.6 22.2.5.2 1.6.9 1.9.3.3-.6-.7-1.2-1.2-1.5z"/><g><path d="M505.2 218.6c-1.2 8.2 1 14.5 8.1 18-2.4-2.9-3.8-6.5-4.5-10.6 2.9 3 4.9 6.3 5.8 10 1.6-7.8-2.1-13.3-9.4-17.4zM465.3 292.4c.6 4.1.3 8-1.1 11.5 5.8-5.4 6-12 2.5-19.6-5.8 6-7.7 12.4-3.9 19.3-.3-3.7.7-7.5 2.5-11.2zM475.8 275.2c-5.1 6.6-6.3 13.1-1.9 19.6-.6-3.7-.1-7.5 1.4-11.4 1 4 1.1 7.9 0 11.5 5.3-5.9 4.8-12.5.5-19.7zM491.1 254.5c-3.6 7.5-3.5 14.2 2.2 19.6-1.4-3.5-1.6-7.4-1-11.5 1.8 3.8 2.7 7.5 2.4 11.3 3.9-6.9 2.1-13.3-3.6-19.4zM484 265.2c-4.4 7.1-4.9 13.7.2 19.7-1-3.6-.8-7.5.2-11.5 1.4 3.9 1.9 7.8 1.2 11.5 4.6-6.4 3.4-13-1.6-19.7zM502.7 262c3.1-7.3.7-13.4-5.6-18.9-2.8 7.8-2 14.4 4.2 19.3-1.7-3.3-2.4-7.2-2.2-11.3 2.2 3.4 3.5 7.1 3.6 10.9zM501.8 231c-2 8.1-.5 14.6 6.2 18.7-2.1-3.1-3.1-6.9-3.3-11 2.5 3.3 4.2 6.8 4.7 10.5 2.3-7.5-.8-13.4-7.6-18.2zM454.5 300.3c.1 4.2-.5 8-2.3 11.3 6.3-4.7 7.2-11.3 4.5-19.2-6.4 5.4-8.9 11.6-5.9 18.8.1-3.8 1.4-7.4 3.7-10.9zM504.6 263.1c3.3-1.8 7.2-2.4 11.3-2.2-3.5 2.2-7.2 3.5-11 3.6 7.2 3.1 13.4.7 18.9-5.6-7.8-2.9-14.4-2.1-19.2 4.2zM518.5 222.2c.7-7.9-3.5-13-11.2-16.3-.3 8.3 2.5 14.4 9.9 17-2.7-2.6-4.5-6.1-5.5-10.1 3.2 2.8 5.6 5.8 6.8 9.4zM453.2 313.5c3.8.1 7.4 1.5 10.9 3.7-4.2.1-8-.5-11.3-2.3 4.7 6.3 11.3 7.2 19.2 4.5-5.3-6.4-11.5-8.9-18.8-5.9zM496.5 275.2c3.5-1.4 7.4-1.6 11.5-1-3.8 1.8-7.5 2.7-11.3 2.4 6.9 3.8 13.3 2 19.4-3.6-7.5-3.7-14.1-3.5-19.6 2.2zM511.3 250.2c3.1-2.1 6.9-3.1 11-3.3-3.3 2.5-6.8 4.2-10.5 4.7 7.5 2.3 13.4-.7 18.2-7.6-8-2-14.5-.5-18.7 6.2zM487.2 286.4c3.6-1 7.5-.8 11.5.2-3.9 1.4-7.8 1.9-11.5 1.2 6.4 4.5 13 3.4 19.7-1.6-7-4.4-13.6-4.9-19.7.2zM476.9 296.6c3.7-.6 7.5-.1 11.4 1.4-4 1-7.9 1.1-11.5 0 5.9 5.2 12.6 4.7 19.7.4-6.6-5-13.1-6.3-19.6-1.8zM465.5 305.7c3.8-.3 7.5.7 11.2 2.6-4.1.6-8 .3-11.5-1.2 5.4 5.8 12 6 19.6 2.5-6-5.8-12.4-7.7-19.3-3.9zM516.7 236.7c2.9-2.4 6.5-3.8 10.6-4.5-3 2.9-6.3 4.9-10 5.8 7.7 1.5 13.3-2.1 17.3-9.4-8.1-1.2-14.4 1-17.9 8.1zM494.4 108.6c-4.1-4.3-9.2-4.4-14.9-1.7 4.6 4.3 9.5 5.7 14.7 2.7-2.9.2-5.7-.5-8.5-1.8 3.1-.4 6-.2 8.7.8zM521.9 193.8c-.9-7.8-6.1-12-14.3-13.6 1.4 8.2 5.4 13.5 13.2 14.6-3.2-2-5.6-5-7.5-8.7 3.7 2 6.7 4.5 8.6 7.7zM500.8 117.9c-4.2-5.1-9.7-5.6-16.1-3.1 4.7 5.1 9.9 7 15.8 4.2-3.1 0-6.2-1-9.2-2.7 3.5-.2 6.7.2 9.5 1.6zM487.6 100.3c-4.1-3.6-8.6-3.4-13.6-.5 4.5 3.6 9 4.5 13.5 1.4-2.6.4-5.2 0-7.9-1 2.9-.6 5.5-.7 8 .1zM520.7 222.7c2.6-2.7 6.1-4.4 10.1-5.5-2.7 3.2-5.8 5.5-9.3 6.8 7.8.7 13-3.5 16.3-11.2-8.4-.4-14.4 2.5-17.1 9.9zM480.5 92.8c-3.9-3-7.9-2.4-12.2.5 4.3 2.9 8.3 3.4 12.2.4-2.3.5-4.6.3-7.1-.4 2.5-.8 4.8-1 7.1-.5zM474 86.9c-2.9-1.9-5.7-1.4-8.6.9 3.1 1.8 6 2 8.6-.3-1.6.5-3.3.4-5 0 1.7-.6 3.4-.9 5-.6zM489.3 123.5c4.7 6 10.2 8.6 17 6.1-3.4-.3-6.7-1.7-9.8-3.8 3.8.1 7.3.8 10.2 2.6-4.1-6-10.1-7.1-17.4-4.9zM521 208.1c-.1-7.9-4.8-12.6-12.8-15 .6 8.3 4 14 11.7 15.9-2.9-2.4-5.1-5.6-6.6-9.5 3.4 2.4 6.1 5.2 7.7 8.6zM494.9 132.9c4.1 6.4 9.4 9.5 16.4 7.6-3.4-.6-6.5-2.2-9.4-4.7 3.8.4 7.2 1.5 10 3.5-3.7-6.3-9.6-7.9-17-6.4zM503 155c3 7.6 7.9 11.9 15.6 11.3-3.5-1.3-6.4-3.7-9-6.8 3.9 1.2 7.2 3 9.7 5.7-2.4-7.4-8.2-10.3-16.3-10.2zM521.4 179.5c-1.7-7.7-7.3-11.3-15.6-12.1 2.3 8 6.8 12.9 14.7 13.2-3.4-1.7-6.1-4.4-8.4-7.9 3.9 1.6 7 3.8 9.3 6.8zM498.8 142.8c3.7 7.1 8.9 10.8 16.4 9.5-3.5-.9-6.6-3-9.4-5.8 3.9.7 7.3 2.2 10.1 4.6-3.2-6.9-9.2-9.2-17.1-8.3zM471.2 83.8c-1.5-.7-2.7-1.9-3.7-3.4 1.7.7 3.1 1.6 4.1 2.9-.8-3.3-3.3-4.8-6.9-5.1 1.1 3.5 3.1 5.5 6.5 5.6zM523.6 179.3c1.7-3.4 4.4-6.1 7.9-8.4-1.6 3.8-3.8 7-6.8 9.3 7.7-1.7 11.3-7.3 12.1-15.6-8 2.2-12.9 6.8-13.2 14.7zM521.5 164.7c1.3-3.4 3.7-6.4 6.9-9-1.2 3.9-3 7.2-5.7 9.7 7.3-2.4 10.3-8.3 10.2-16.4-7.6 3.1-11.9 8-11.4 15.7zM517.9 150.4c.9-3.5 2.9-6.6 5.8-9.4-.8 3.9-2.2 7.3-4.6 10.1 6.9-3.1 9.2-9.1 8.2-17-7 3.7-10.7 8.9-9.4 16.3zM513.6 138.6c.6-3.4 2.2-6.5 4.7-9.5-.4 3.8-1.5 7.2-3.5 10 6.3-3.5 7.9-9.4 6.4-16.9-6.4 4.1-9.4 9.4-7.6 16.4zM524.1 209.5c7.9-.1 12.6-4.8 15-12.8-8.3.6-14 4-15.9 11.7 2.4-2.9 5.6-5.1 9.5-6.6-2.4 3.4-5.2 6.1-8.6 7.7zM524.1 193.8c2-3.2 5-5.6 8.7-7.5-2 3.7-4.5 6.6-7.7 8.5 7.8-.9 12-6.1 13.6-14.3-8.1 1.5-13.5 5.5-14.6 13.3zM497.8 98.9c.5 3.1.3 6-.7 8.7 4.3-4.1 4.4-9.2 1.7-14.9-4.3 4.6-5.7 9.5-2.7 14.7-.4-2.8.3-5.6 1.7-8.5zM508.5 127.4c.3-3.4 1.7-6.7 3.8-9.8 0 3.8-.8 7.3-2.6 10.2 6-4.1 7.1-10.1 4.9-17.4-6 4.7-8.6 10.3-6.1 17zM482.3 84.3c.8 2.5 1 4.8.5 7.1 3-3.9 2.4-7.9-.5-12.2-2.9 4.3-3.4 8.3-.4 12.2-.6-2.2-.4-4.6.4-7.1zM475.2 80.4c.7 1.7.9 3.4.7 5 1.9-2.9 1.4-5.7-.9-8.6-1.8 3.1-2 6 .3 8.6-.5-1.5-.5-3.2-.1-5zM490.1 91.2c.6 2.8.7 5.5-.1 7.9 3.6-4.1 3.4-8.6.5-13.6-3.6 4.5-4.5 9-1.4 13.5-.4-2.5 0-5.1 1-7.8zM505.1 107.7c.2 3.4-.2 6.6-1.6 9.4 5.1-4.2 5.6-9.7 3.1-16.1-5.1 4.7-7 9.9-4.2 15.8 0-3.1 1-6.1 2.7-9.1z"/><path d="M510.1 132.1c-8.6-18.2-21.2-34.6-37.1-47.8-.5-.4-.7-.1-.7-.1s-.2.3.2.7c15.8 13.1 28.3 29.4 36.9 47.5 25.3 53.5 13.5 117.6-29.6 159-9 8.7-19.2 16.1-30.3 22.1-.4.3-1.5.9-1.1 1.6.3.6 1.4-.1 1.9-.3 11.2-6 21.5-13.5 30.6-22.2 43.4-41.9 54.7-106.6 29.2-160.5z"/></g></g></g><g id="swag"><g id="large-x-solid-line-svg"><path class="st0" d="M332.7 134.7l120.6 120.6M332.7 255.3l120.6-120.6"/></g></g><path d="M330.5 205.5v3.3c0 .9.3 1.7 1 2.3s1.4.9 2.3.9c.9 0 1.7-.3 2.3-.9.6-.6.9-1.4.9-2.3v-6.5c0-.9-.3-1.7-.9-2.3-.6-.6-1.4-.9-2.3-.9-2.9 0-5.4-1.1-7.3-3.3-1.7-1.9-2.5-4-2.5-6.5v-6.5c0-2.7 1-5 2.9-6.9 1.9-1.9 4.2-2.9 6.9-2.9s5 1 6.9 2.9c1.9 1.9 2.9 4.2 2.9 6.9v3.2H337v-3.2c0-.9-.3-1.7-.9-2.3-.6-.6-1.4-1-2.3-1-.9 0-1.7.3-2.3 1s-1 1.4-1 2.3v6.5c0 .9.3 1.7 1 2.3s1.4 1 2.3 1c2.9 0 5.3 1.1 7.3 3.2 1.7 1.9 2.5 4 2.5 6.5v6.5c0 2.7-1 5-2.9 6.9s-4.2 2.9-6.9 2.9-5-1-6.9-2.9c-1.9-1.9-2.9-4.2-2.9-6.9v-3.3h6.5zM382.2 112.5h6.6l4.9 19.5 4.8-19.5h6.6l-8.1 32.6v13h-6.6v-13l-8.2-32.6zM444.4 172.6h6.5l6.5 22.8v-22.8h6.5v45.5h-6.5l-6.5-22.8v22.8h-6.5v-45.5zM386.6 235c1.9-1.9 4.2-2.9 6.9-2.9s5 1 6.9 2.9c1.9 1.9 2.9 4.2 2.9 6.9v26.2c0 .9.3 1.7 1 2.3s1.4.9 2.3.9v6.5c-2.6 0-4.8-.9-6.6-2.6-1.8 1.6-3.9 2.3-6.4 2.3-2.7 0-5-1-6.9-2.9s-2.9-4.2-2.9-6.9v-26c-.1-2.4.9-4.7 2.8-6.7zm9.2 4.6c-.6-.6-1.4-1-2.3-1-.9 0-1.7.3-2.3 1s-.9 1.4-.9 2.3v26c0 .9.3 1.7.9 2.3s1.4.9 2.3.9c.9 0 1.7-.3 2.3-.9s1-1.4 1-2.3v-26c-.1-.9-.4-1.6-1-2.3z"/></g></svg>