<svg id="Ebene_1" xmlns="http://www.w3.org/2000/svg" viewBox="346.9 26.8 292.2 258.9"><style>.st0{fill:none;stroke:#000000;stroke-width:5;stroke-miterlimit:10;} .st1{fill:none;} .st2{font-family:&apos;OSP-DIN&apos;;} .st3{font-size:65px;} .st4{font-family:&apos;TrumpGothicPro&apos;;} .st5{font-size:20px;}</style><g id="logo-graphic"><g id="base"><g id="laurel-svg"><path d="M380.7 168.6c-7.3 4.1-11 9.6-9.4 17.3.9-3.7 2.9-7 5.8-10-.7 4.1-2.1 7.7-4.5 10.6 7.1-3.3 9.3-9.6 8.1-17.9zM419.3 234.3c-3.5 7.5-3.3 14.2 2.5 19.6-1.4-3.5-1.7-7.3-1.1-11.5 1.8 3.7 2.8 7.5 2.6 11.2 3.6-6.9 1.8-13.3-4-19.3zM410.1 225.2c-4.3 7.1-4.7 13.8.4 19.7-1.1-3.6-.9-7.5 0-11.5 1.5 3.9 2 7.7 1.4 11.4 4.6-6.4 3.3-13-1.8-19.6zM394.9 204.5c-5.7 6.1-7.5 12.5-3.6 19.4-.3-3.8.6-7.5 2.4-11.3.6 4.1.4 8-1 11.5 5.6-5.5 5.8-12.1 2.2-19.6zM402 215.2c-5 6.7-6.2 13.2-1.6 19.7-.7-3.7-.2-7.5 1.2-11.5 1 4 1.2 7.9.2 11.5 5.1-5.9 4.6-12.6.2-19.7zM388.9 193c-6.3 5.5-8.7 11.7-5.6 18.9.1-3.8 1.4-7.4 3.6-11 .2 4.2-.4 8-2.2 11.3 6.2-4.7 7.1-11.3 4.2-19.2zM384.2 181c-6.8 4.8-9.9 10.7-7.6 18.2.5-3.7 2.2-7.2 4.7-10.5-.2 4.2-1.3 7.9-3.3 11 6.7-4.1 8.2-10.6 6.2-18.7zM433.8 261.6c-1.8-3.3-2.5-7.1-2.3-11.3 2.2 3.5 3.6 7.1 3.7 10.9 3-7.3.5-13.4-5.9-18.8-2.7 7.8-1.8 14.4 4.5 19.2zM381 214.5c-3.8-.1-7.4-1.4-11-3.6 4.2-.2 8 .4 11.3 2.2-4.8-6.2-11.4-7.1-19.3-4.2 5.6 6.2 11.8 8.7 19 5.6zM378.6 155.9c-7.7 3.3-11.9 8.4-11.2 16.3 1.2-3.6 3.6-6.6 6.8-9.3-1.1 4-2.9 7.5-5.5 10.1 7.4-2.7 10.2-8.8 9.9-17.1zM421.8 267.2c3.5-2.2 7.1-3.6 10.9-3.7-7.3-3-13.5-.5-18.8 5.9 7.9 2.7 14.5 1.8 19.2-4.5-3.3 1.8-7.1 2.5-11.3 2.3zM389.2 226.6c-3.8.3-7.5-.6-11.3-2.4 4.1-.6 8-.4 11.5 1-5.4-5.7-12.1-5.9-19.6-2.2 6.1 5.7 12.5 7.5 19.4 3.6zM374.1 201.5c-3.7-.5-7.2-2.2-10.5-4.7 4.2.2 7.9 1.3 11 3.3-4.2-6.7-10.6-8.2-18.7-6.2 4.8 6.9 10.7 10 18.2 7.6zM398.6 237.8c-3.7.7-7.5.2-11.5-1.2 4-1 7.9-1.2 11.5-.2-6-5.1-12.7-4.6-19.7-.2 6.7 5.1 13.3 6.2 19.7 1.6zM397.7 248c3.9-1.5 7.7-2 11.4-1.4-6.5-4.5-13.1-3.2-19.6 1.9 7.1 4.3 13.8 4.7 19.7-.4-3.6 1-7.5.9-11.5-.1zM409.2 258.2c3.7-1.8 7.5-2.8 11.2-2.6-6.9-3.8-13.3-1.9-19.3 3.9 7.5 3.5 14.2 3.3 19.6-2.5-3.5 1.5-7.3 1.8-11.5 1.2zM368.6 188c-3.7-.9-7-2.9-10-5.8 4.1.7 7.7 2.1 10.6 4.5-3.4-7.1-9.7-9.3-18-8.1 4.1 7.2 9.7 10.9 17.4 9.4zM391.6 58.6c2.7-1.1 5.6-1.2 8.7-.7-2.8 1.4-5.7 2.1-8.5 1.8 5.2 2.9 10.1 1.6 14.7-2.7-5.7-2.8-10.8-2.7-14.9 1.6zM372.6 136.1c-1.9 3.7-4.3 6.7-7.5 8.7 7.8-1.1 11.8-6.4 13.2-14.6-8.2 1.6-13.4 5.8-14.3 13.6 2-3.2 4.9-5.7 8.6-7.7zM401.3 64.8c-6.4-2.5-11.9-2-16.1 3.1 2.8-1.4 6-1.8 9.4-1.6-3 1.7-6 2.7-9.2 2.7 6 2.8 11.2.9 15.9-4.2zM398.3 50.3c2.5-.8 5.1-.7 7.9-.1-2.7 1-5.3 1.5-7.9 1 4.5 3 9 2.1 13.5-1.4-4.8-2.9-9.4-3.1-13.5.5zM364.5 173.9c-3.6-1.2-6.6-3.6-9.3-6.8 4 1.1 7.5 2.9 10.1 5.5-2.7-7.4-8.7-10.3-17-9.9 3.2 7.7 8.4 11.9 16.2 11.2zM405.5 42.8c2.3-.5 4.6-.3 7.1.5-2.5.7-4.8.9-7.1.4 3.8 3 7.9 2.5 12.2-.4-4.3-2.9-8.4-3.5-12.2-.5zM411.9 37.5c2.6 2.3 5.5 2.1 8.6.3-2.9-2.3-5.7-2.8-8.6-.9 1.6-.3 3.3 0 5 .7-1.7.3-3.4.4-5-.1zM396.6 73.5c-7.3-2.2-13.3-1.1-17.4 4.9 3-1.8 6.4-2.5 10.2-2.6-3.1 2.2-6.4 3.6-9.8 3.8 6.8 2.5 12.4-.1 17-6.1zM366.1 159c7.7-1.9 11.1-7.6 11.7-15.9-8 2.5-12.7 7.1-12.8 15 1.6-3.4 4.3-6.2 7.7-8.6-1.5 3.9-3.6 7.1-6.6 9.5zM374.2 89.3c2.8-2 6.2-3.1 10-3.5-2.9 2.4-6 4.1-9.4 4.7 7 1.9 12.3-1.2 16.4-7.6-7.6-1.5-13.5.1-17 6.4zM366.6 115.1c2.5-2.7 5.8-4.5 9.7-5.7-2.6 3.2-5.5 5.5-9 6.8 7.7.5 12.6-3.8 15.6-11.3-8.1 0-13.9 2.9-16.3 10.2zM373.8 122.7c-2.3 3.5-5 6.2-8.4 7.9 7.9-.3 12.4-5.2 14.7-13.2-8.3.8-13.9 4.4-15.6 12.1 2.3-3 5.5-5.2 9.3-6.8zM370.1 101.1c2.7-2.4 6.1-3.8 10.1-4.6-2.8 2.8-5.9 4.9-9.4 5.8 7.5 1.3 12.7-2.4 16.4-9.5-8-.9-14 1.4-17.1 8.3zM418.4 30.4c-1 1.5-2.2 2.7-3.7 3.4 3.4 0 5.4-2.1 6.5-5.6-3.6.3-6.1 1.8-6.9 5.1 1-1.3 2.4-2.2 4.1-2.9zM361.2 130.2c-3-2.3-5.2-5.5-6.8-9.3 3.5 2.3 6.2 5 7.9 8.4-.3-7.9-5.2-12.4-13.2-14.7.8 8.3 4.4 13.9 12.1 15.6zM363.3 115.5c-2.7-2.5-4.5-5.8-5.7-9.7 3.2 2.6 5.5 5.5 6.9 9 .5-7.7-3.8-12.6-11.3-15.6-.2 8 2.8 13.9 10.1 16.3zM366.9 101.1c-2.4-2.7-3.8-6.1-4.6-10.1 2.8 2.8 4.9 5.9 5.8 9.4 1.3-7.4-2.4-12.7-9.5-16.4-.9 8 1.4 14 8.3 17.1zM371.1 89.1c-2-2.8-3.1-6.2-3.5-10 2.4 2.9 4.1 6 4.7 9.5 1.9-7-1.2-12.3-7.6-16.4-1.5 7.5.1 13.3 6.4 16.9zM361.9 159.5c-3.4-1.6-6.2-4.3-8.6-7.7 3.9 1.5 7.1 3.6 9.5 6.6-1.9-7.7-7.6-11.1-15.9-11.7 2.4 7.9 7.1 12.7 15 12.8zM360.8 144.8c-3.2-1.9-5.7-4.9-7.7-8.5 3.7 1.9 6.7 4.3 8.7 7.5-1.1-7.8-6.4-11.8-14.6-13.2 1.6 8.1 5.8 13.4 13.6 14.2zM388.2 48.9c1.4 2.8 2.1 5.7 1.8 8.6 2.9-5.2 1.6-10.1-2.7-14.7-2.8 5.7-2.7 10.7 1.7 14.9-1.1-2.7-1.3-5.6-.8-8.8zM376.2 77.8c-1.8-3-2.5-6.4-2.6-10.2 2.2 3.1 3.6 6.4 3.8 9.8 2.5-6.8-.1-12.3-6.1-17-2.2 7.4-1.1 13.4 4.9 17.4zM403.7 34.3c.7 2.5.9 4.8.4 7.1 3-3.8 2.5-7.9-.4-12.2-2.9 4.2-3.5 8.3-.5 12.2-.5-2.2-.3-4.6.5-7.1zM410.7 30.4c.4 1.8.5 3.5 0 5 2.3-2.6 2.1-5.5.3-8.6-2.3 2.9-2.8 5.7-.9 8.6-.3-1.6 0-3.3.6-5zM395.8 41.2c1 2.7 1.5 5.3 1 7.9 3-4.5 2.1-9-1.4-13.5-2.9 5-3.2 9.5.5 13.6-.8-2.6-.7-5.2-.1-8zM382.4 67.1c-1.4-2.8-1.8-6-1.6-9.4 1.7 3 2.7 6 2.7 9.2 2.7-6 .8-11.1-4.2-15.8-2.5 6.4-2 11.9 3.1 16z"/><path d="M436.5 263.4c-11.1-6-21.3-13.4-30.3-22.1-43.1-41.3-55-105.4-29.6-159 8.6-18.1 21.1-34.4 36.9-47.5.4-.4.2-.6.2-.7 0 0-.3-.3-.7.1-15.9 13.2-28.5 29.5-37.1 47.8-25.5 54-14.2 118.6 29.3 160.4 9.1 8.7 19.4 16.2 30.6 22.2.5.2 1.6.9 1.9.3.3-.6-.7-1.2-1.2-1.5z"/><g><path d="M605.2 168.6c-1.2 8.2 1 14.5 8.1 18-2.4-2.9-3.8-6.5-4.5-10.6 2.9 3 4.9 6.3 5.8 10 1.6-7.8-2.1-13.3-9.4-17.4zM565.3 242.4c.6 4.1.3 8-1.1 11.5 5.8-5.4 6-12 2.5-19.6-5.8 6-7.7 12.4-3.9 19.3-.3-3.7.7-7.5 2.5-11.2zM575.8 225.2c-5.1 6.6-6.3 13.1-1.9 19.6-.6-3.7-.1-7.5 1.4-11.4 1 4 1.1 7.9 0 11.5 5.3-5.9 4.8-12.5.5-19.7zM591.1 204.5c-3.6 7.5-3.5 14.2 2.2 19.6-1.4-3.5-1.6-7.4-1-11.5 1.8 3.8 2.7 7.5 2.4 11.3 3.9-6.9 2.1-13.3-3.6-19.4zM584 215.2c-4.4 7.1-4.9 13.7.2 19.7-1-3.6-.8-7.5.2-11.5 1.4 3.9 1.9 7.8 1.2 11.5 4.6-6.4 3.4-13-1.6-19.7zM602.7 212c3.1-7.3.7-13.4-5.6-18.9-2.8 7.8-2 14.4 4.2 19.3-1.7-3.3-2.4-7.2-2.2-11.3 2.2 3.4 3.5 7.1 3.6 10.9zM601.8 181c-2 8.1-.5 14.6 6.2 18.7-2.1-3.1-3.1-6.9-3.3-11 2.5 3.3 4.2 6.8 4.7 10.5 2.3-7.5-.8-13.4-7.6-18.2zM554.5 250.3c.1 4.2-.5 8-2.3 11.3 6.3-4.7 7.2-11.3 4.5-19.2-6.4 5.4-8.9 11.6-5.9 18.8.1-3.8 1.4-7.4 3.7-10.9zM604.6 213.1c3.3-1.8 7.2-2.4 11.3-2.2-3.5 2.2-7.2 3.5-11 3.6 7.2 3.1 13.4.7 18.9-5.6-7.8-2.9-14.4-2.1-19.2 4.2zM618.5 172.2c.7-7.9-3.5-13-11.2-16.3-.3 8.3 2.5 14.4 9.9 17-2.7-2.6-4.5-6.1-5.5-10.1 3.2 2.8 5.6 5.8 6.8 9.4zM553.2 263.5c3.8.1 7.4 1.5 10.9 3.7-4.2.1-8-.5-11.3-2.3 4.7 6.3 11.3 7.2 19.2 4.5-5.3-6.4-11.5-8.9-18.8-5.9zM596.5 225.2c3.5-1.4 7.4-1.6 11.5-1-3.8 1.8-7.5 2.7-11.3 2.4 6.9 3.8 13.3 2 19.4-3.6-7.5-3.7-14.1-3.5-19.6 2.2zM611.3 200.2c3.1-2.1 6.9-3.1 11-3.3-3.3 2.5-6.8 4.2-10.5 4.7 7.5 2.3 13.4-.7 18.2-7.6-8-2-14.5-.5-18.7 6.2zM587.2 236.4c3.6-1 7.5-.8 11.5.2-3.9 1.4-7.8 1.9-11.5 1.2 6.4 4.5 13 3.4 19.7-1.6-7-4.4-13.6-4.9-19.7.2zM576.9 246.6c3.7-.6 7.5-.1 11.4 1.4-4 1-7.9 1.1-11.5 0 5.9 5.2 12.6 4.7 19.7.4-6.6-5-13.1-6.3-19.6-1.8zM565.5 255.7c3.8-.3 7.5.7 11.2 2.6-4.1.6-8 .3-11.5-1.2 5.4 5.8 12 6 19.6 2.5-6-5.8-12.4-7.7-19.3-3.9zM616.7 186.7c2.9-2.4 6.5-3.8 10.6-4.5-3 2.9-6.3 4.9-10 5.8 7.7 1.5 13.3-2.1 17.3-9.4-8.1-1.2-14.4 1-17.9 8.1zM594.4 58.6c-4.1-4.3-9.2-4.4-14.9-1.7 4.6 4.3 9.5 5.7 14.7 2.7-2.9.2-5.7-.5-8.5-1.8 3.1-.4 6-.2 8.7.8zM621.9 143.8c-.9-7.8-6.1-12-14.3-13.6 1.4 8.2 5.4 13.5 13.2 14.6-3.2-2-5.6-5-7.5-8.7 3.7 2 6.7 4.5 8.6 7.7zM600.8 67.9c-4.2-5.1-9.7-5.6-16.1-3.1 4.7 5.1 9.9 7 15.8 4.2-3.1 0-6.2-1-9.2-2.7 3.5-.2 6.7.2 9.5 1.6zM587.6 50.3c-4.1-3.6-8.6-3.4-13.6-.5 4.5 3.6 9 4.5 13.5 1.4-2.6.4-5.2 0-7.9-1 2.9-.6 5.5-.7 8 .1zM620.7 172.7c2.6-2.7 6.1-4.4 10.1-5.5-2.7 3.2-5.8 5.5-9.3 6.8 7.8.7 13-3.5 16.3-11.2-8.4-.4-14.4 2.5-17.1 9.9zM580.5 42.8c-3.9-3-7.9-2.4-12.2.5 4.3 2.9 8.3 3.4 12.2.4-2.3.5-4.6.3-7.1-.4 2.5-.8 4.8-1 7.1-.5zM574 36.9c-2.9-1.9-5.7-1.4-8.6.9 3.1 1.8 6 2 8.6-.3-1.6.5-3.3.4-5 0 1.7-.6 3.4-.9 5-.6zM589.3 73.5c4.7 6 10.2 8.6 17 6.1-3.4-.3-6.7-1.7-9.8-3.8 3.8.1 7.3.8 10.2 2.6-4.1-6-10.1-7.1-17.4-4.9zM621 158.1c-.1-7.9-4.8-12.6-12.8-15 .6 8.3 4 14 11.7 15.9-2.9-2.4-5.1-5.6-6.6-9.5 3.4 2.4 6.1 5.2 7.7 8.6zM594.9 82.9c4.1 6.4 9.4 9.5 16.4 7.6-3.4-.6-6.5-2.2-9.4-4.7 3.8.4 7.2 1.5 10 3.5-3.7-6.3-9.6-7.9-17-6.4zM603 105c3 7.6 7.9 11.9 15.6 11.3-3.5-1.3-6.4-3.7-9-6.8 3.9 1.2 7.2 3 9.7 5.7-2.4-7.4-8.2-10.3-16.3-10.2zM621.4 129.5c-1.7-7.7-7.3-11.3-15.6-12.1 2.3 8 6.8 12.9 14.7 13.2-3.4-1.7-6.1-4.4-8.4-7.9 3.9 1.6 7 3.8 9.3 6.8zM598.8 92.8c3.7 7.1 8.9 10.8 16.4 9.5-3.5-.9-6.6-3-9.4-5.8 3.9.7 7.3 2.2 10.1 4.6-3.2-6.9-9.2-9.2-17.1-8.3zM571.2 33.8c-1.5-.7-2.7-1.9-3.7-3.4 1.7.7 3.1 1.6 4.1 2.9-.8-3.3-3.3-4.8-6.9-5.1 1.1 3.5 3.1 5.5 6.5 5.6zM623.6 129.3c1.7-3.4 4.4-6.1 7.9-8.4-1.6 3.8-3.8 7-6.8 9.3 7.7-1.7 11.3-7.3 12.1-15.6-8 2.2-12.9 6.8-13.2 14.7zM621.5 114.7c1.3-3.4 3.7-6.4 6.9-9-1.2 3.9-3 7.2-5.7 9.7 7.3-2.4 10.3-8.3 10.2-16.4-7.6 3.1-11.9 8-11.4 15.7zM617.9 100.4c.9-3.5 2.9-6.6 5.8-9.4-.8 3.9-2.2 7.3-4.6 10.1 6.9-3.1 9.2-9.1 8.2-17-7 3.7-10.7 8.9-9.4 16.3zM613.6 88.6c.6-3.4 2.2-6.5 4.7-9.5-.4 3.8-1.5 7.2-3.5 10 6.3-3.5 7.9-9.4 6.4-16.9-6.4 4.1-9.4 9.4-7.6 16.4zM624.1 159.5c7.9-.1 12.6-4.8 15-12.8-8.3.6-14 4-15.9 11.7 2.4-2.9 5.6-5.1 9.5-6.6-2.4 3.4-5.2 6.1-8.6 7.7zM624.1 143.8c2-3.2 5-5.6 8.7-7.5-2 3.7-4.5 6.6-7.7 8.5 7.8-.9 12-6.1 13.6-14.3-8.1 1.5-13.5 5.5-14.6 13.3zM597.8 48.9c.5 3.1.3 6-.7 8.7 4.3-4.1 4.4-9.2 1.7-14.9-4.3 4.6-5.7 9.5-2.7 14.7-.4-2.8.3-5.6 1.7-8.5zM608.5 77.4c.3-3.4 1.7-6.7 3.8-9.8 0 3.8-.8 7.3-2.6 10.2 6-4.1 7.1-10.1 4.9-17.4-6 4.7-8.6 10.3-6.1 17zM582.3 34.3c.8 2.5 1 4.8.5 7.1 3-3.9 2.4-7.9-.5-12.2-2.9 4.3-3.4 8.3-.4 12.2-.6-2.2-.4-4.6.4-7.1zM575.2 30.4c.7 1.7.9 3.4.7 5 1.9-2.9 1.4-5.7-.9-8.6-1.8 3.1-2 6 .3 8.6-.5-1.5-.5-3.2-.1-5zM590.1 41.2c.6 2.8.7 5.5-.1 7.9 3.6-4.1 3.4-8.6.5-13.6-3.6 4.5-4.5 9-1.4 13.5-.4-2.5 0-5.1 1-7.8zM605.1 57.7c.2 3.4-.2 6.6-1.6 9.4 5.1-4.2 5.6-9.7 3.1-16.1-5.1 4.7-7 9.9-4.2 15.8 0-3.1 1-6.1 2.7-9.1z"/><path d="M610.1 82.1c-8.6-18.2-21.2-34.6-37.1-47.8-.5-.4-.7-.1-.7-.1s-.2.3.2.7c15.8 13.1 28.3 29.4 36.9 47.5 25.3 53.5 13.5 117.6-29.6 159-9 8.7-19.2 16.1-30.3 22.1-.4.3-1.5.9-1.1 1.6.3.6 1.4-.1 1.9-.3 11.2-6 21.5-13.5 30.6-22.2 43.4-41.9 54.7-106.6 29.2-160.5z"/></g></g></g><g id="swag"><g id="large-x-solid-line-svg"><path class="st0" d="M432.7 84.7l120.6 120.6M432.7 205.3L553.3 84.7"/></g></g><path class="st1" d="M421.2 123h55v73h-55z"/><text transform="translate(421.19 168.485)" class="st2 st3">S</text><path class="st1" d="M483 62.5h54v56h-54z"/><text transform="translate(482 108.056)" class="st2 st3">Y</text><path class="st1" d="M541.6 120.6h57v61h-57z"/><text transform="translate(541.568 166.086)" class="st2 st3">N</text><path class="st1" d="M481 182.2h42v69h-42z"/><text transform="translate(481 227.69)" class="st2 st3">Q</text><text transform="translate(474.09 281.127)" class="st4 st5">est. 2015</text></g></svg>