<?xml version="1.0" encoding="utf-8"?>
<!-- Generator: Adobe Illustrator 19.1.0, SVG Export Plug-In . SVG Version: 6.00 Build 0)  -->
<!DOCTYPE svg PUBLIC "-//W3C//DTD SVG 1.1//EN" "http://www.w3.org/Graphics/SVG/1.1/DTD/svg11.dtd">
<svg version="1.1" id="Ebene_1" xmlns="http://www.w3.org/2000/svg" xmlns:xlink="http://www.w3.org/1999/xlink" x="0px" y="0px"
	 viewBox="-53 73.6 292.2 255.4" style="enable-background:new -53 73.6 292.2 255.4;" xml:space="preserve">
<style type="text/css">
	.st0{fill:none;stroke:#000000;stroke-width:5;stroke-miterlimit:10;}
</style>
<g id="logo-graphic">
	<g id="base">
		<g id="laurel-svg">
			<g>
				<path d="M-19.2,215.4c-7.3,4.1-11,9.6-9.4,17.3c0.9-3.7,2.9-7,5.8-10c-0.7,4.1-2.1,7.7-4.5,10.6C-20.2,230-18,223.7-19.2,215.4z
					"/>
				<path d="M19.4,281.1c-3.5,7.5-3.3,14.2,2.5,19.6c-1.4-3.5-1.7-7.3-1.1-11.5c1.8,3.7,2.8,7.5,2.6,11.2
					C27,293.5,25.2,287.1,19.4,281.1z"/>
				<path d="M10.2,272c-4.3,7.1-4.7,13.8,0.4,19.7c-1.1-3.6-0.9-7.5,0-11.5c1.5,3.9,2,7.7,1.4,11.4C16.6,285.2,15.3,278.6,10.2,272z
					"/>
				<path d="M-5,251.3c-5.7,6.1-7.5,12.5-3.6,19.4c-0.3-3.8,0.6-7.5,2.4-11.3c0.6,4.1,0.4,8-1,11.5C-1.6,265.4-1.4,258.8-5,251.3z"
					/>
				<path d="M2.1,262c-5,6.7-6.2,13.2-1.6,19.7c-0.7-3.7-0.2-7.5,1.2-11.5c1,4,1.2,7.9,0.2,11.5C7,275.8,6.5,269.1,2.1,262z"/>
				<path d="M-11,239.8c-6.3,5.5-8.7,11.7-5.6,18.9c0.1-3.8,1.4-7.4,3.6-11c0.2,4.2-0.4,8-2.2,11.3C-9,254.3-8.1,247.7-11,239.8z"/>
				<path d="M-15.7,227.8c-6.8,4.8-9.9,10.7-7.6,18.2c0.5-3.7,2.2-7.2,4.7-10.5c-0.2,4.2-1.3,7.9-3.3,11
					C-15.2,242.4-13.7,235.9-15.7,227.8z"/>
				<path d="M33.9,308.4c-1.8-3.3-2.5-7.1-2.3-11.3c2.2,3.5,3.6,7.1,3.7,10.9c3-7.3,0.5-13.4-5.9-18.8
					C26.7,297,27.6,303.6,33.9,308.4z"/>
				<path d="M-18.9,261.3c-3.8-0.1-7.4-1.4-11-3.6c4.2-0.2,8,0.4,11.3,2.2c-4.8-6.2-11.4-7.1-19.3-4.2
					C-32.3,261.9-26.1,264.4-18.9,261.3z"/>
				<path d="M-21.3,202.7c-7.7,3.3-11.9,8.4-11.2,16.3c1.2-3.6,3.6-6.6,6.8-9.3c-1.1,4-2.9,7.5-5.5,10.1
					C-23.8,217.1-21,211-21.3,202.7z"/>
				<path d="M21.9,314c3.5-2.2,7.1-3.6,10.9-3.7c-7.3-3-13.5-0.5-18.8,5.9c7.9,2.7,14.5,1.8,19.2-4.5
					C29.9,313.5,26.1,314.2,21.9,314z"/>
				<path d="M-10.7,273.4c-3.8,0.3-7.5-0.6-11.3-2.4c4.1-0.6,8-0.4,11.5,1c-5.4-5.7-12.1-5.9-19.6-2.2
					C-24,275.5-17.6,277.3-10.7,273.4z"/>
				<path d="M-25.8,248.3c-3.7-0.5-7.2-2.2-10.5-4.7c4.2,0.2,7.9,1.3,11,3.3c-4.2-6.7-10.6-8.2-18.7-6.2
					C-39.2,247.6-33.3,250.7-25.8,248.3z"/>
				<path d="M-1.3,284.6c-3.7,0.7-7.5,0.2-11.5-1.2c4-1,7.9-1.2,11.5-0.2c-6-5.1-12.7-4.6-19.7-0.2C-14.3,288.1-7.7,289.2-1.3,284.6
					z"/>
				<path d="M-2.2,294.8c3.9-1.5,7.7-2,11.4-1.4c-6.5-4.5-13.1-3.2-19.6,1.9c7.1,4.3,13.8,4.7,19.7-0.4
					C5.7,295.9,1.8,295.8-2.2,294.8z"/>
				<path d="M9.3,305c3.7-1.8,7.5-2.8,11.2-2.6c-6.9-3.8-13.3-1.9-19.3,3.9c7.5,3.5,14.2,3.3,19.6-2.5
					C17.3,305.3,13.5,305.6,9.3,305z"/>
				<path d="M-31.3,234.8c-3.7-0.9-7-2.9-10-5.8c4.1,0.7,7.7,2.1,10.6,4.5c-3.4-7.1-9.7-9.3-18-8.1C-44.6,232.6-39,236.3-31.3,234.8
					z"/>
				<path d="M-8.3,105.4c2.7-1.1,5.6-1.2,8.7-0.7c-2.8,1.4-5.7,2.1-8.5,1.8c5.2,2.9,10.1,1.6,14.7-2.7C0.9,101-4.2,101.1-8.3,105.4z
					"/>
				<path d="M-27.3,182.9c-1.9,3.7-4.3,6.7-7.5,8.7c7.8-1.1,11.8-6.4,13.2-14.6c-8.2,1.6-13.4,5.8-14.3,13.6
					C-33.9,187.4-31,184.9-27.3,182.9z"/>
				<path d="M1.4,111.6c-6.4-2.5-11.9-2-16.1,3.1c2.8-1.4,6-1.8,9.4-1.6c-3,1.7-6,2.7-9.2,2.7C-8.5,118.6-3.3,116.7,1.4,111.6z"/>
				<path d="M-1.6,97.1c2.5-0.8,5.1-0.7,7.9-0.1c-2.7,1-5.3,1.5-7.9,1c4.5,3,9,2.1,13.5-1.4C7.1,93.7,2.5,93.5-1.6,97.1z"/>
				<path d="M-35.4,220.7c-3.6-1.2-6.6-3.6-9.3-6.8c4,1.1,7.5,2.9,10.1,5.5c-2.7-7.4-8.7-10.3-17-9.9
					C-48.4,217.2-43.2,221.4-35.4,220.7z"/>
				<path d="M5.6,89.6c2.3-0.5,4.6-0.3,7.1,0.5c-2.5,0.7-4.8,0.9-7.1,0.4c3.8,3,7.9,2.5,12.2-0.4C13.5,87.2,9.4,86.6,5.6,89.6z"/>
				<path d="M12,84.3c2.6,2.3,5.5,2.1,8.6,0.3c-2.9-2.3-5.7-2.8-8.6-0.9c1.6-0.3,3.3,0,5,0.7C15.3,84.7,13.6,84.8,12,84.3z"/>
				<path d="M-3.3,120.3c-7.3-2.2-13.3-1.1-17.4,4.9c3-1.8,6.4-2.5,10.2-2.6c-3.1,2.2-6.4,3.6-9.8,3.8
					C-13.5,128.9-7.9,126.3-3.3,120.3z"/>
				<path d="M-33.8,205.8c7.7-1.9,11.1-7.6,11.7-15.9c-8,2.5-12.7,7.1-12.8,15c1.6-3.4,4.3-6.2,7.7-8.6
					C-28.7,200.2-30.8,203.4-33.8,205.8z"/>
				<path d="M-25.7,136.1c2.8-2,6.2-3.1,10-3.5c-2.9,2.4-6,4.1-9.4,4.7c7,1.9,12.3-1.2,16.4-7.6C-16.3,128.2-22.2,129.8-25.7,136.1z
					"/>
				<path d="M-33.3,161.9c2.5-2.7,5.8-4.5,9.7-5.7c-2.6,3.2-5.5,5.5-9,6.8c7.7,0.5,12.6-3.8,15.6-11.3
					C-25.1,151.7-30.9,154.6-33.3,161.9z"/>
				<path d="M-26.1,169.5c-2.3,3.5-5,6.2-8.4,7.9c7.9-0.3,12.4-5.2,14.7-13.2c-8.3,0.8-13.9,4.4-15.6,12.1
					C-33.1,173.3-29.9,171.1-26.1,169.5z"/>
				<path d="M-29.8,147.9c2.7-2.4,6.1-3.8,10.1-4.6c-2.8,2.8-5.9,4.9-9.4,5.8c7.5,1.3,12.7-2.4,16.4-9.5
					C-20.7,138.7-26.7,141-29.8,147.9z"/>
				<path d="M18.5,77.2c-1,1.5-2.2,2.7-3.7,3.4c3.4,0,5.4-2.1,6.5-5.6c-3.6,0.3-6.1,1.8-6.9,5.1C15.4,78.8,16.8,77.9,18.5,77.2z"/>
				<path d="M-38.7,177c-3-2.3-5.2-5.5-6.8-9.3c3.5,2.3,6.2,5,7.9,8.4c-0.3-7.9-5.2-12.4-13.2-14.7C-50,169.7-46.4,175.3-38.7,177z"
					/>
				<path d="M-36.6,162.3c-2.7-2.5-4.5-5.8-5.7-9.7c3.2,2.6,5.5,5.5,6.9,9c0.5-7.7-3.8-12.6-11.3-15.6
					C-46.9,154-43.9,159.9-36.6,162.3z"/>
				<path d="M-33,147.9c-2.4-2.7-3.8-6.1-4.6-10.1c2.8,2.8,4.9,5.9,5.8,9.4c1.3-7.4-2.4-12.7-9.5-16.4
					C-42.2,138.8-39.9,144.8-33,147.9z"/>
				<path d="M-28.8,135.9c-2-2.8-3.1-6.2-3.5-10c2.4,2.9,4.1,6,4.7,9.5c1.9-7-1.2-12.3-7.6-16.4C-36.7,126.5-35.1,132.3-28.8,135.9z
					"/>
				<path d="M-38,206.3c-3.4-1.6-6.2-4.3-8.6-7.7c3.9,1.5,7.1,3.6,9.5,6.6c-1.9-7.7-7.6-11.1-15.9-11.7
					C-50.6,201.4-45.9,206.2-38,206.3z"/>
				<path d="M-39.1,191.6c-3.2-1.9-5.7-4.9-7.7-8.5c3.7,1.9,6.7,4.3,8.7,7.5c-1.1-7.8-6.4-11.8-14.6-13.2
					C-51.1,185.5-46.9,190.8-39.1,191.6z"/>
				<path d="M-11.7,95.7c1.4,2.8,2.1,5.7,1.8,8.6c2.9-5.2,1.6-10.1-2.7-14.7c-2.8,5.7-2.7,10.7,1.7,14.9
					C-12,101.8-12.2,98.9-11.7,95.7z"/>
				<path d="M-23.7,124.6c-1.8-3-2.5-6.4-2.6-10.2c2.2,3.1,3.6,6.4,3.8,9.8c2.5-6.8-0.1-12.3-6.1-17
					C-30.8,114.6-29.7,120.6-23.7,124.6z"/>
				<path d="M3.8,81.1c0.7,2.5,0.9,4.8,0.4,7.1c3-3.8,2.5-7.9-0.4-12.2c-2.9,4.2-3.5,8.3-0.5,12.2C2.8,86,3,83.6,3.8,81.1z"/>
				<path d="M10.8,77.2c0.4,1.8,0.5,3.5,0,5c2.3-2.6,2.1-5.5,0.3-8.6c-2.3,2.9-2.8,5.7-0.9,8.6C9.9,80.6,10.2,78.9,10.8,77.2z"/>
				<path d="M-4.1,88c1,2.7,1.5,5.3,1,7.9c3-4.5,2.1-9-1.4-13.5c-2.9,5-3.2,9.5,0.5,13.6C-4.8,93.4-4.7,90.8-4.1,88z"/>
				<path d="M-17.5,113.9c-1.4-2.8-1.8-6-1.6-9.4c1.7,3,2.7,6,2.7,9.2c2.7-6,0.8-11.1-4.2-15.8C-23.1,104.3-22.6,109.8-17.5,113.9z"
					/>
				<path d="M36.6,310.2c-11.1-6-21.3-13.4-30.3-22.1c-43.1-41.3-55-105.4-29.6-159c8.6-18.1,21.1-34.4,36.9-47.5
					c0.4-0.4,0.2-0.6,0.2-0.7c0,0-0.3-0.3-0.7,0.1C-2.8,94.2-15.4,110.5-24,128.8c-25.5,54-14.2,118.6,29.3,160.4
					c9.1,8.7,19.4,16.2,30.6,22.2c0.5,0.2,1.6,0.9,1.9,0.3C38.1,311.1,37.1,310.5,36.6,310.2z"/>
			</g>
			<g>
				<path d="M205.3,215.4c-1.2,8.2,1,14.5,8.1,18c-2.4-2.9-3.8-6.5-4.5-10.6c2.9,3,4.9,6.3,5.8,10
					C216.3,225,212.6,219.5,205.3,215.4z"/>
				<path d="M165.4,289.2c0.6,4.1,0.3,8-1.1,11.5c5.8-5.4,6-12,2.5-19.6c-5.8,6-7.7,12.4-3.9,19.3
					C162.6,296.7,163.6,292.9,165.4,289.2z"/>
				<path d="M175.9,272c-5.1,6.6-6.3,13.1-1.9,19.6c-0.6-3.7-0.1-7.5,1.4-11.4c1,4,1.1,7.9,0,11.5
					C180.7,285.8,180.2,279.2,175.9,272z"/>
				<path d="M191.2,251.3c-3.6,7.5-3.5,14.2,2.2,19.6c-1.4-3.5-1.6-7.4-1-11.5c1.8,3.8,2.7,7.5,2.4,11.3
					C198.7,263.8,196.9,257.4,191.2,251.3z"/>
				<path d="M184.1,262c-4.4,7.1-4.9,13.7,0.2,19.7c-1-3.6-0.8-7.5,0.2-11.5c1.4,3.9,1.9,7.8,1.2,11.5
					C190.3,275.3,189.1,268.7,184.1,262z"/>
				<path d="M202.8,258.8c3.1-7.3,0.7-13.4-5.6-18.9c-2.8,7.8-2,14.4,4.2,19.3c-1.7-3.3-2.4-7.2-2.2-11.3
					C201.4,251.3,202.7,255,202.8,258.8z"/>
				<path d="M201.9,227.8c-2,8.1-0.5,14.6,6.2,18.7c-2.1-3.1-3.1-6.9-3.3-11c2.5,3.3,4.2,6.8,4.7,10.5
					C211.8,238.5,208.7,232.6,201.9,227.8z"/>
				<path d="M154.6,297.1c0.1,4.2-0.5,8-2.3,11.3c6.3-4.7,7.2-11.3,4.5-19.2c-6.4,5.4-8.9,11.6-5.9,18.8
					C151,304.2,152.3,300.6,154.6,297.1z"/>
				<path d="M204.7,259.9c3.3-1.8,7.2-2.4,11.3-2.2c-3.5,2.2-7.2,3.5-11,3.6c7.2,3.1,13.4,0.7,18.9-5.6
					C216.1,252.8,209.5,253.6,204.7,259.9z"/>
				<path d="M218.6,219c0.7-7.9-3.5-13-11.2-16.3c-0.3,8.3,2.5,14.4,9.9,17c-2.7-2.6-4.5-6.1-5.5-10.1
					C215,212.4,217.4,215.4,218.6,219z"/>
				<path d="M153.3,310.3c3.8,0.1,7.4,1.5,10.9,3.7c-4.2,0.1-8-0.5-11.3-2.3c4.7,6.3,11.3,7.2,19.2,4.5
					C166.8,309.8,160.6,307.3,153.3,310.3z"/>
				<path d="M196.6,272c3.5-1.4,7.4-1.6,11.5-1c-3.8,1.8-7.5,2.7-11.3,2.4c6.9,3.8,13.3,2,19.4-3.6
					C208.7,266.1,202.1,266.3,196.6,272z"/>
				<path d="M211.4,247c3.1-2.1,6.9-3.1,11-3.3c-3.3,2.5-6.8,4.2-10.5,4.7c7.5,2.3,13.4-0.7,18.2-7.6
					C222.1,238.8,215.6,240.3,211.4,247z"/>
				<path d="M187.3,283.2c3.6-1,7.5-0.8,11.5,0.2c-3.9,1.4-7.8,1.9-11.5,1.2c6.4,4.5,13,3.4,19.7-1.6
					C200,278.6,193.4,278.1,187.3,283.2z"/>
				<path d="M177,293.4c3.7-0.6,7.5-0.1,11.4,1.4c-4,1-7.9,1.1-11.5,0c5.9,5.2,12.6,4.7,19.7,0.4C190,290.2,183.5,288.9,177,293.4z"
					/>
				<path d="M165.6,302.5c3.8-0.3,7.5,0.7,11.2,2.6c-4.1,0.6-8,0.3-11.5-1.2c5.4,5.8,12,6,19.6,2.5
					C178.9,300.6,172.5,298.7,165.6,302.5z"/>
				<path d="M216.8,233.5c2.9-2.4,6.5-3.8,10.6-4.5c-3,2.9-6.3,4.9-10,5.8c7.7,1.5,13.3-2.1,17.3-9.4
					C226.6,224.2,220.3,226.4,216.8,233.5z"/>
				<path d="M194.5,105.4c-4.1-4.3-9.2-4.4-14.9-1.7c4.6,4.3,9.5,5.7,14.7,2.7c-2.9,0.2-5.7-0.5-8.5-1.8
					C188.9,104.2,191.8,104.4,194.5,105.4z"/>
				<path d="M222,190.6c-0.9-7.8-6.1-12-14.3-13.6c1.4,8.2,5.4,13.5,13.2,14.6c-3.2-2-5.6-5-7.5-8.7
					C217.1,184.9,220.1,187.4,222,190.6z"/>
				<path d="M200.9,114.7c-4.2-5.1-9.7-5.6-16.1-3.1c4.7,5.1,9.9,7,15.8,4.2c-3.1,0-6.2-1-9.2-2.7
					C194.9,112.9,198.1,113.3,200.9,114.7z"/>
				<path d="M187.7,97.1c-4.1-3.6-8.6-3.4-13.6-0.5c4.5,3.6,9,4.5,13.5,1.4c-2.6,0.4-5.2,0-7.9-1C182.6,96.4,185.2,96.3,187.7,97.1z
					"/>
				<path d="M220.8,219.5c2.6-2.7,6.1-4.4,10.1-5.5c-2.7,3.2-5.8,5.5-9.3,6.8c7.8,0.7,13-3.5,16.3-11.2
					C229.5,209.2,223.5,212.1,220.8,219.5z"/>
				<path d="M180.6,89.6c-3.9-3-7.9-2.4-12.2,0.5c4.3,2.9,8.3,3.4,12.2,0.4c-2.3,0.5-4.6,0.3-7.1-0.4
					C176,89.3,178.3,89.1,180.6,89.6z"/>
				<path d="M174.1,83.7c-2.9-1.9-5.7-1.4-8.6,0.9c3.1,1.8,6,2,8.6-0.3c-1.6,0.5-3.3,0.4-5,0C170.8,83.7,172.5,83.4,174.1,83.7z"/>
				<path d="M189.4,120.3c4.7,6,10.2,8.6,17,6.1c-3.4-0.3-6.7-1.7-9.8-3.8c3.8,0.1,7.3,0.8,10.2,2.6
					C202.7,119.2,196.7,118.1,189.4,120.3z"/>
				<path d="M221.1,204.9c-0.1-7.9-4.8-12.6-12.8-15c0.6,8.3,4,14,11.7,15.9c-2.9-2.4-5.1-5.6-6.6-9.5
					C216.8,198.7,219.5,201.5,221.1,204.9z"/>
				<path d="M195,129.7c4.1,6.4,9.4,9.5,16.4,7.6c-3.4-0.6-6.5-2.2-9.4-4.7c3.8,0.4,7.2,1.5,10,3.5
					C208.3,129.8,202.4,128.2,195,129.7z"/>
				<path d="M203.1,151.8c3,7.6,7.9,11.9,15.6,11.3c-3.5-1.3-6.4-3.7-9-6.8c3.9,1.2,7.2,3,9.7,5.7
					C217,154.6,211.2,151.7,203.1,151.8z"/>
				<path d="M221.5,176.3c-1.7-7.7-7.3-11.3-15.6-12.1c2.3,8,6.8,12.9,14.7,13.2c-3.4-1.7-6.1-4.4-8.4-7.9
					C216.1,171.1,219.2,173.3,221.5,176.3z"/>
				<path d="M198.9,139.6c3.7,7.1,8.9,10.8,16.4,9.5c-3.5-0.9-6.6-3-9.4-5.8c3.9,0.7,7.3,2.2,10.1,4.6
					C212.8,141,206.8,138.7,198.9,139.6z"/>
				<path d="M171.3,80.6c-1.5-0.7-2.7-1.9-3.7-3.4c1.7,0.7,3.1,1.6,4.1,2.9c-0.8-3.3-3.3-4.8-6.9-5.1
					C165.9,78.5,167.9,80.5,171.3,80.6z"/>
				<path d="M223.7,176.1c1.7-3.4,4.4-6.1,7.9-8.4c-1.6,3.8-3.8,7-6.8,9.3c7.7-1.7,11.3-7.3,12.1-15.6
					C228.9,163.6,224,168.2,223.7,176.1z"/>
				<path d="M221.6,161.5c1.3-3.4,3.7-6.4,6.9-9c-1.2,3.9-3,7.2-5.7,9.7c7.3-2.4,10.3-8.3,10.2-16.4
					C225.4,148.9,221.1,153.8,221.6,161.5z"/>
				<path d="M218,147.2c0.9-3.5,2.9-6.6,5.8-9.4c-0.8,3.9-2.2,7.3-4.6,10.1c6.9-3.1,9.2-9.1,8.2-17
					C220.4,134.6,216.7,139.8,218,147.2z"/>
				<path d="M213.7,135.4c0.6-3.4,2.2-6.5,4.7-9.5c-0.4,3.8-1.5,7.2-3.5,10c6.3-3.5,7.9-9.4,6.4-16.9
					C214.9,123.1,211.9,128.4,213.7,135.4z"/>
				<path d="M224.2,206.3c7.9-0.1,12.6-4.8,15-12.8c-8.3,0.6-14,4-15.9,11.7c2.4-2.9,5.6-5.1,9.5-6.6
					C230.4,202,227.6,204.7,224.2,206.3z"/>
				<path d="M224.2,190.6c2-3.2,5-5.6,8.7-7.5c-2,3.7-4.5,6.6-7.7,8.5c7.8-0.9,12-6.1,13.6-14.3
					C230.7,178.8,225.3,182.8,224.2,190.6z"/>
				<path d="M197.9,95.7c0.5,3.1,0.3,6-0.7,8.7c4.3-4.1,4.4-9.2,1.7-14.9c-4.3,4.6-5.7,9.5-2.7,14.7
					C195.8,101.4,196.5,98.6,197.9,95.7z"/>
				<path d="M208.6,124.2c0.3-3.4,1.7-6.7,3.8-9.8c0,3.8-0.8,7.3-2.6,10.2c6-4.1,7.1-10.1,4.9-17.4
					C208.7,111.9,206.1,117.5,208.6,124.2z"/>
				<path d="M182.4,81.1c0.8,2.5,1,4.8,0.5,7.1c3-3.9,2.4-7.9-0.5-12.2c-2.9,4.3-3.4,8.3-0.4,12.2C181.4,86,181.6,83.6,182.4,81.1z"
					/>
				<path d="M175.3,77.2c0.7,1.7,0.9,3.4,0.7,5c1.9-2.9,1.4-5.7-0.9-8.6c-1.8,3.1-2,6,0.3,8.6C174.9,80.7,174.9,79,175.3,77.2z"/>
				<path d="M190.2,88c0.6,2.8,0.7,5.5-0.1,7.9c3.6-4.1,3.4-8.6,0.5-13.6c-3.6,4.5-4.5,9-1.4,13.5C188.8,93.3,189.2,90.7,190.2,88z"
					/>
				<path d="M205.2,104.5c0.2,3.4-0.2,6.6-1.6,9.4c5.1-4.2,5.6-9.7,3.1-16.1c-5.1,4.7-7,9.9-4.2,15.8
					C202.5,110.5,203.5,107.5,205.2,104.5z"/>
				<path d="M210.2,128.9c-8.6-18.2-21.2-34.6-37.1-47.8c-0.5-0.4-0.7-0.1-0.7-0.1s-0.2,0.3,0.2,0.7c15.8,13.1,28.3,29.4,36.9,47.5
					c25.3,53.5,13.5,117.6-29.6,159c-9,8.7-19.2,16.1-30.3,22.1c-0.4,0.3-1.5,0.9-1.1,1.6c0.3,0.6,1.4-0.1,1.9-0.3
					c11.2-6,21.5-13.5,30.6-22.2C224.4,247.5,235.7,182.8,210.2,128.9z"/>
			</g>
		</g>
	</g>
	<g id="swag">
		<g id="large-x-solid-line-svg">
			<line class="st0" x1="32.8" y1="131.5" x2="153.4" y2="252.1"/>
			<line class="st0" x1="32.8" y1="252.1" x2="153.4" y2="131.5"/>
		</g>
	</g>
	<g>
		<path d="M30.6,202.3v3.3c0,0.9,0.3,1.7,1,2.3s1.4,0.9,2.3,0.9s1.7-0.3,2.3-0.9c0.6-0.6,0.9-1.4,0.9-2.3v-6.5
			c0-0.9-0.3-1.7-0.9-2.3s-1.4-0.9-2.3-0.9c-2.9,0-5.4-1.1-7.3-3.3c-1.7-1.9-2.5-4-2.5-6.5v-6.5c0-2.7,1-5,2.9-6.9s4.2-2.9,6.9-2.9
			c2.7,0,5,1,6.9,2.9s2.9,4.2,2.9,6.9v3.2h-0.6h-6v-3.2c0-0.9-0.3-1.7-0.9-2.3s-1.4-1-2.3-1s-1.7,0.3-2.3,1s-1,1.4-1,2.3v6.5
			c0,0.9,0.3,1.7,1,2.3s1.4,1,2.3,1c2.9,0,5.3,1.1,7.3,3.2c1.7,1.9,2.5,4,2.5,6.5v6.5c0,2.7-1,5-2.9,6.9s-4.2,2.9-6.9,2.9
			c-2.7,0-5-1-6.9-2.9s-2.9-4.2-2.9-6.9v-3.3H30.6z"/>
	</g>
	<g>
		<path d="M82.3,109.3h6.6l4.9,19.5l4.8-19.5h6.6l-8.1,32.6v13h-6.6v-13L82.3,109.3z"/>
	</g>
	<g>
		<path d="M144.5,169.4h6.5l6.5,22.8v-22.8h6.5v45.5h-6.5l-6.5-22.8v22.8h-6.5V169.4z"/>
	</g>
	<g>
		<path d="M86.7,231.8c1.9-1.9,4.2-2.9,6.9-2.9c2.7,0,5,1,6.9,2.9s2.9,4.2,2.9,6.9v26.2c0,0.9,0.3,1.7,1,2.3s1.4,0.9,2.3,0.9v6.5
			c-2.6,0-4.8-0.9-6.6-2.6c-1.8,1.6-3.9,2.3-6.4,2.3c-2.7,0-5-1-6.9-2.9c-1.9-1.9-2.9-4.2-2.9-6.9v-26
			C83.8,236.1,84.8,233.8,86.7,231.8z M95.9,236.4c-0.6-0.6-1.4-1-2.3-1s-1.7,0.3-2.3,1s-0.9,1.4-0.9,2.3v26c0,0.9,0.3,1.7,0.9,2.3
			s1.4,0.9,2.3,0.9s1.7-0.3,2.3-0.9c0.6-0.6,1-1.4,1-2.3v-26C96.8,237.8,96.5,237.1,95.9,236.4z"/>
	</g>
</g>
<g id="Ebene_2">
</g>
</svg>
