<?xml version="1.0" encoding="utf-8"?>
<!-- Generator: Adobe Illustrator 19.1.0, SVG Export Plug-In . SVG Version: 6.00 Build 0)  -->
<!DOCTYPE svg PUBLIC "-//W3C//DTD SVG 1.1//EN" "http://www.w3.org/Graphics/SVG/1.1/DTD/svg11.dtd">
<svg version="1.1" xmlns="http://www.w3.org/2000/svg" xmlns:xlink="http://www.w3.org/1999/xlink" x="0px" y="0px"
	 viewBox="246.9 76.8 292.2 255.4" style="enable-background:new 246.9 76.8 292.2 255.4;" xml:space="preserve">
<style type="text/css">
	.st0{fill:none;stroke:#000000;stroke-width:5;stroke-miterlimit:10;}
</style>
<g id="logo-graphic">
	<path d="M374.8,327.8h1.3v1.7c0,2.1-0.9,2.6-2.1,2.6c-1.2,0-2.1-0.5-2.1-2.6V322c0-2.1,0.9-2.6,2.1-2.6c1.2,0,2.1,0.5,2.1,2.6v4.3
		h-2.9v3.4c0,0.8,0.3,1.2,0.8,1.2c0.5,0,0.8-0.4,0.8-1.2V327.8z M374.8,321.8c0-0.8-0.3-1.2-0.8-1.2c-0.5,0-0.8,0.4-0.8,1.2v3.2h1.6
		V321.8z M378.5,329.3c0,1.1,0.1,1.6,0.8,1.6c0.7,0,1-0.5,1-1.5c0-3.6-3.1-2.6-3.1-7c0-2.4,0.9-2.9,2.2-2.9c1.5,0,2.2,0.6,2.2,2.8
		v1.5h-1.3v-1.4c0-1.3-0.2-1.6-0.9-1.6c-0.7,0-0.9,0.3-0.9,1.5c0,4,3.1,2.6,3.1,7c0,2.3-0.8,2.9-2.3,2.9c-1.6,0-2.1-0.8-2.1-3v-1.2
		h1.3V329.3z M385.8,331.9c-0.3,0.1-0.6,0.1-0.9,0.1c-1.5,0-1.8-0.9-1.8-3.3v-8h-1v-1.2h1v-3h1.3v3h1.4v1.2h-1.4v8.6
		c0,1.1,0.1,1.5,0.9,1.5c0.1,0,0.3,0,0.5,0V331.9z M387.5,332.1c-0.5,0-0.9-0.4-0.9-0.9c0-0.5,0.4-0.9,0.9-0.9
		c0.5,0,0.9,0.4,0.9,0.9C388.4,331.6,388,332.1,387.5,332.1z M392.4,331.9V330c0-3.1,3.8-7,3.8-9.9v-2.3c0-1.2-0.6-1.6-1.2-1.6
		c-0.6,0-1.2,0.4-1.2,1.6v2.9h-1.3v-2.6c0-2.4,1.1-3.2,2.5-3.2c1.5,0,2.6,0.8,2.6,3.2v2.2c0,3-3.7,7.2-3.7,10.2h3.3v1.3H392.4z
		 M399,318.5c0-2.8,1.1-3.5,2.6-3.5c1.5,0,2.6,0.7,2.6,3.5v10.2c0,2.8-1.1,3.5-2.6,3.5c-1.5,0-2.6-0.7-2.6-3.5V318.5z M402.7,317.9
		c0-1.1-0.5-1.6-1.2-1.6c-0.7,0-1.2,0.5-1.2,1.6v11.4c0,1.1,0.5,1.6,1.2,1.6c0.7,0,1.2-0.5,1.2-1.6V317.9z M407.1,331.9v-15l-2,0.8
		v-1.3l2.2-1.1h1.1v16.6H407.1z M414.3,324.1c0-1.6-0.6-1.8-1.1-1.8c-0.7,0-1.3,0.5-1.3,1.8h-1.3v-8.8h4.6v1.3h-3.2v5.7
		c0.3-0.8,1.1-1.2,1.8-1.2c1,0,2,0.8,2,2.8v4.9c0,2.3-0.9,3.3-2.5,3.3c-1.6,0-2.6-0.9-2.6-3.3v-1.4h1.3v1.8c0,1.3,0.6,1.7,1.2,1.7
		c0.6,0,1.2-0.5,1.2-1.7V324.1z"/>
	<g id="base">
		<g id="laurel-svg">
			<g>
				<path d="M280.7,218.6c-7.3,4.1-11,9.6-9.4,17.3c0.9-3.7,2.9-7,5.8-10c-0.7,4.1-2.1,7.7-4.5,10.6
					C279.7,233.2,281.9,226.9,280.7,218.6z"/>
				<path d="M319.3,284.3c-3.5,7.5-3.3,14.2,2.5,19.6c-1.4-3.5-1.7-7.3-1.1-11.5c1.8,3.7,2.8,7.5,2.6,11.2
					C326.9,296.7,325.1,290.3,319.3,284.3z"/>
				<path d="M310.1,275.2c-4.3,7.1-4.7,13.8,0.4,19.7c-1.1-3.6-0.9-7.5,0-11.5c1.5,3.9,2,7.7,1.4,11.4
					C316.5,288.4,315.2,281.8,310.1,275.2z"/>
				<path d="M294.9,254.5c-5.7,6.1-7.5,12.5-3.6,19.4c-0.3-3.8,0.6-7.5,2.4-11.3c0.6,4.1,0.4,8-1,11.5
					C298.3,268.6,298.5,262,294.9,254.5z"/>
				<path d="M302,265.2c-5,6.7-6.2,13.2-1.6,19.7c-0.7-3.7-0.2-7.5,1.2-11.5c1,4,1.2,7.9,0.2,11.5C306.9,279,306.4,272.3,302,265.2z
					"/>
				<path d="M288.9,243c-6.3,5.5-8.7,11.7-5.6,18.9c0.1-3.8,1.4-7.4,3.6-11c0.2,4.2-0.4,8-2.2,11.3
					C290.9,257.5,291.8,250.9,288.9,243z"/>
				<path d="M284.2,231c-6.8,4.8-9.9,10.7-7.6,18.2c0.5-3.7,2.2-7.2,4.7-10.5c-0.2,4.2-1.3,7.9-3.3,11
					C284.7,245.6,286.2,239.1,284.2,231z"/>
				<path d="M333.8,311.6c-1.8-3.3-2.5-7.1-2.3-11.3c2.2,3.5,3.6,7.1,3.7,10.9c3-7.3,0.5-13.4-5.9-18.8
					C326.6,300.2,327.5,306.8,333.8,311.6z"/>
				<path d="M281,264.5c-3.8-0.1-7.4-1.4-11-3.6c4.2-0.2,8,0.4,11.3,2.2c-4.8-6.2-11.4-7.1-19.3-4.2
					C267.6,265.1,273.8,267.6,281,264.5z"/>
				<path d="M278.6,205.9c-7.7,3.3-11.9,8.4-11.2,16.3c1.2-3.6,3.6-6.6,6.8-9.3c-1.1,4-2.9,7.5-5.5,10.1
					C276.1,220.3,278.9,214.2,278.6,205.9z"/>
				<path d="M321.8,317.2c3.5-2.2,7.1-3.6,10.9-3.7c-7.3-3-13.5-0.5-18.8,5.9c7.9,2.7,14.5,1.8,19.2-4.5
					C329.8,316.7,326,317.4,321.8,317.2z"/>
				<path d="M289.2,276.6c-3.8,0.3-7.5-0.6-11.3-2.4c4.1-0.6,8-0.4,11.5,1c-5.4-5.7-12.1-5.9-19.6-2.2
					C275.9,278.7,282.3,280.5,289.2,276.6z"/>
				<path d="M274.1,251.5c-3.7-0.5-7.2-2.2-10.5-4.7c4.2,0.2,7.9,1.3,11,3.3c-4.2-6.7-10.6-8.2-18.7-6.2
					C260.7,250.8,266.6,253.9,274.1,251.5z"/>
				<path d="M298.6,287.8c-3.7,0.7-7.5,0.2-11.5-1.2c4-1,7.9-1.2,11.5-0.2c-6-5.1-12.7-4.6-19.7-0.2
					C285.6,291.3,292.2,292.4,298.6,287.8z"/>
				<path d="M297.7,298c3.9-1.5,7.7-2,11.4-1.4c-6.5-4.5-13.1-3.2-19.6,1.9c7.1,4.3,13.8,4.7,19.7-0.4
					C305.6,299.1,301.7,299,297.7,298z"/>
				<path d="M309.2,308.2c3.7-1.8,7.5-2.8,11.2-2.6c-6.9-3.8-13.3-1.9-19.3,3.9c7.5,3.5,14.2,3.3,19.6-2.5
					C317.2,308.5,313.4,308.8,309.2,308.2z"/>
				<path d="M268.6,238c-3.7-0.9-7-2.9-10-5.8c4.1,0.7,7.7,2.1,10.6,4.5c-3.4-7.1-9.7-9.3-18-8.1C255.3,235.8,260.9,239.5,268.6,238
					z"/>
				<path d="M291.6,108.6c2.7-1.1,5.6-1.2,8.7-0.7c-2.8,1.4-5.7,2.1-8.5,1.8c5.2,2.9,10.1,1.6,14.7-2.7
					C300.8,104.2,295.7,104.3,291.6,108.6z"/>
				<path d="M272.6,186.1c-1.9,3.7-4.3,6.7-7.5,8.7c7.8-1.1,11.8-6.4,13.2-14.6c-8.2,1.6-13.4,5.8-14.3,13.6
					C266,190.6,268.9,188.1,272.6,186.1z"/>
				<path d="M301.3,114.8c-6.4-2.5-11.9-2-16.1,3.1c2.8-1.4,6-1.8,9.4-1.6c-3,1.7-6,2.7-9.2,2.7
					C291.4,121.8,296.6,119.9,301.3,114.8z"/>
				<path d="M298.3,100.3c2.5-0.8,5.1-0.7,7.9-0.1c-2.7,1-5.3,1.5-7.9,1c4.5,3,9,2.1,13.5-1.4C307,96.9,302.4,96.7,298.3,100.3z"/>
				<path d="M264.5,223.9c-3.6-1.2-6.6-3.6-9.3-6.8c4,1.1,7.5,2.9,10.1,5.5c-2.7-7.4-8.7-10.3-17-9.9
					C251.5,220.4,256.7,224.6,264.5,223.9z"/>
				<path d="M305.5,92.8c2.3-0.5,4.6-0.3,7.1,0.5c-2.5,0.7-4.8,0.9-7.1,0.4c3.8,3,7.9,2.5,12.2-0.4
					C313.4,90.4,309.3,89.8,305.5,92.8z"/>
				<path d="M311.9,87.5c2.6,2.3,5.5,2.1,8.6,0.3c-2.9-2.3-5.7-2.8-8.6-0.9c1.6-0.3,3.3,0,5,0.7C315.2,87.9,313.5,88,311.9,87.5z"/>
				<path d="M296.6,123.5c-7.3-2.2-13.3-1.1-17.4,4.9c3-1.8,6.4-2.5,10.2-2.6c-3.1,2.2-6.4,3.6-9.8,3.8
					C286.4,132.1,292,129.5,296.6,123.5z"/>
				<path d="M266.1,209c7.7-1.9,11.1-7.6,11.7-15.9c-8,2.5-12.7,7.1-12.8,15c1.6-3.4,4.3-6.2,7.7-8.6
					C271.2,203.4,269.1,206.6,266.1,209z"/>
				<path d="M274.2,139.3c2.8-2,6.2-3.1,10-3.5c-2.9,2.4-6,4.1-9.4,4.7c7,1.9,12.3-1.2,16.4-7.6C283.6,131.4,277.7,133,274.2,139.3z
					"/>
				<path d="M266.6,165.1c2.5-2.7,5.8-4.5,9.7-5.7c-2.6,3.2-5.5,5.5-9,6.8c7.7,0.5,12.6-3.8,15.6-11.3
					C274.8,154.9,269,157.8,266.6,165.1z"/>
				<path d="M273.8,172.7c-2.3,3.5-5,6.2-8.4,7.9c7.9-0.3,12.4-5.2,14.7-13.2c-8.3,0.8-13.9,4.4-15.6,12.1
					C266.8,176.5,270,174.3,273.8,172.7z"/>
				<path d="M270.1,151.1c2.7-2.4,6.1-3.8,10.1-4.6c-2.8,2.8-5.9,4.9-9.4,5.8c7.5,1.3,12.7-2.4,16.4-9.5
					C279.2,141.9,273.2,144.2,270.1,151.1z"/>
				<path d="M318.4,80.4c-1,1.5-2.2,2.7-3.7,3.4c3.4,0,5.4-2.1,6.5-5.6c-3.6,0.3-6.1,1.8-6.9,5.1C315.3,82,316.7,81.1,318.4,80.4z"
					/>
				<path d="M261.2,180.2c-3-2.3-5.2-5.5-6.8-9.3c3.5,2.3,6.2,5,7.9,8.4c-0.3-7.9-5.2-12.4-13.2-14.7
					C249.9,172.9,253.5,178.5,261.2,180.2z"/>
				<path d="M263.3,165.5c-2.7-2.5-4.5-5.8-5.7-9.7c3.2,2.6,5.5,5.5,6.9,9c0.5-7.7-3.8-12.6-11.3-15.6
					C253,157.2,256,163.1,263.3,165.5z"/>
				<path d="M266.9,151.1c-2.4-2.7-3.8-6.1-4.6-10.1c2.8,2.8,4.9,5.9,5.8,9.4c1.3-7.4-2.4-12.7-9.5-16.4
					C257.7,142,260,148,266.9,151.1z"/>
				<path d="M271.1,139.1c-2-2.8-3.1-6.2-3.5-10c2.4,2.9,4.1,6,4.7,9.5c1.9-7-1.2-12.3-7.6-16.4
					C263.2,129.7,264.8,135.5,271.1,139.1z"/>
				<path d="M261.9,209.5c-3.4-1.6-6.2-4.3-8.6-7.7c3.9,1.5,7.1,3.6,9.5,6.6c-1.9-7.7-7.6-11.1-15.9-11.7
					C249.3,204.6,254,209.4,261.9,209.5z"/>
				<path d="M260.8,194.8c-3.2-1.9-5.7-4.9-7.7-8.5c3.7,1.9,6.7,4.3,8.7,7.5c-1.1-7.8-6.4-11.8-14.6-13.2
					C248.8,188.7,253,194,260.8,194.8z"/>
				<path d="M288.2,98.9c1.4,2.8,2.1,5.7,1.8,8.6c2.9-5.2,1.6-10.1-2.7-14.7c-2.8,5.7-2.7,10.7,1.7,14.9
					C287.9,105,287.7,102.1,288.2,98.9z"/>
				<path d="M276.2,127.8c-1.8-3-2.5-6.4-2.6-10.2c2.2,3.1,3.6,6.4,3.8,9.8c2.5-6.8-0.1-12.3-6.1-17
					C269.1,117.8,270.2,123.8,276.2,127.8z"/>
				<path d="M303.7,84.3c0.7,2.5,0.9,4.8,0.4,7.1c3-3.8,2.5-7.9-0.4-12.2c-2.9,4.2-3.5,8.3-0.5,12.2
					C302.7,89.2,302.9,86.8,303.7,84.3z"/>
				<path d="M310.7,80.4c0.4,1.8,0.5,3.5,0,5c2.3-2.6,2.1-5.5,0.3-8.6c-2.3,2.9-2.8,5.7-0.9,8.6C309.8,83.8,310.1,82.1,310.7,80.4z"
					/>
				<path d="M295.8,91.2c1,2.7,1.5,5.3,1,7.9c3-4.5,2.1-9-1.4-13.5c-2.9,5-3.2,9.5,0.5,13.6C295.1,96.6,295.2,94,295.8,91.2z"/>
				<path d="M282.4,117.1c-1.4-2.8-1.8-6-1.6-9.4c1.7,3,2.7,6,2.7,9.2c2.7-6,0.8-11.1-4.2-15.8C276.8,107.5,277.3,113,282.4,117.1z"
					/>
				<path d="M336.5,313.4c-11.1-6-21.3-13.4-30.3-22.1c-43.1-41.3-55-105.4-29.6-159c8.6-18.1,21.1-34.4,36.9-47.5
					c0.4-0.4,0.2-0.6,0.2-0.7c0,0-0.3-0.3-0.7,0.1c-15.9,13.2-28.5,29.5-37.1,47.8c-25.5,54-14.2,118.6,29.3,160.4
					c9.1,8.7,19.4,16.2,30.6,22.2c0.5,0.2,1.6,0.9,1.9,0.3C338,314.3,337,313.7,336.5,313.4z"/>
			</g>
			<g>
				<path d="M505.2,218.6c-1.2,8.2,1,14.5,8.1,18c-2.4-2.9-3.8-6.5-4.5-10.6c2.9,3,4.9,6.3,5.8,10
					C516.2,228.2,512.5,222.7,505.2,218.6z"/>
				<path d="M465.3,292.4c0.6,4.1,0.3,8-1.1,11.5c5.8-5.4,6-12,2.5-19.6c-5.8,6-7.7,12.4-3.9,19.3
					C462.5,299.9,463.5,296.1,465.3,292.4z"/>
				<path d="M475.8,275.2c-5.1,6.6-6.3,13.1-1.9,19.6c-0.6-3.7-0.1-7.5,1.4-11.4c1,4,1.1,7.9,0,11.5
					C480.6,289,480.1,282.4,475.8,275.2z"/>
				<path d="M491.1,254.5c-3.6,7.5-3.5,14.2,2.2,19.6c-1.4-3.5-1.6-7.4-1-11.5c1.8,3.8,2.7,7.5,2.4,11.3
					C498.6,267,496.8,260.6,491.1,254.5z"/>
				<path d="M484,265.2c-4.4,7.1-4.9,13.7,0.2,19.7c-1-3.6-0.8-7.5,0.2-11.5c1.4,3.9,1.9,7.8,1.2,11.5
					C490.2,278.5,489,271.9,484,265.2z"/>
				<path d="M502.7,262c3.1-7.3,0.7-13.4-5.6-18.9c-2.8,7.8-2,14.4,4.2,19.3c-1.7-3.3-2.4-7.2-2.2-11.3
					C501.3,254.5,502.6,258.2,502.7,262z"/>
				<path d="M501.8,231c-2,8.1-0.5,14.6,6.2,18.7c-2.1-3.1-3.1-6.9-3.3-11c2.5,3.3,4.2,6.8,4.7,10.5
					C511.7,241.7,508.6,235.8,501.8,231z"/>
				<path d="M454.5,300.3c0.1,4.2-0.5,8-2.3,11.3c6.3-4.7,7.2-11.3,4.5-19.2c-6.4,5.4-8.9,11.6-5.9,18.8
					C450.9,307.4,452.2,303.8,454.5,300.3z"/>
				<path d="M504.6,263.1c3.3-1.8,7.2-2.4,11.3-2.2c-3.5,2.2-7.2,3.5-11,3.6c7.2,3.1,13.4,0.7,18.9-5.6
					C516,256,509.4,256.8,504.6,263.1z"/>
				<path d="M518.5,222.2c0.7-7.9-3.5-13-11.2-16.3c-0.3,8.3,2.5,14.4,9.9,17c-2.7-2.6-4.5-6.1-5.5-10.1
					C514.9,215.6,517.3,218.6,518.5,222.2z"/>
				<path d="M453.2,313.5c3.8,0.1,7.4,1.5,10.9,3.7c-4.2,0.1-8-0.5-11.3-2.3c4.7,6.3,11.3,7.2,19.2,4.5
					C466.7,313,460.5,310.5,453.2,313.5z"/>
				<path d="M496.5,275.2c3.5-1.4,7.4-1.6,11.5-1c-3.8,1.8-7.5,2.7-11.3,2.4c6.9,3.8,13.3,2,19.4-3.6
					C508.6,269.3,502,269.5,496.5,275.2z"/>
				<path d="M511.3,250.2c3.1-2.1,6.9-3.1,11-3.3c-3.3,2.5-6.8,4.2-10.5,4.7c7.5,2.3,13.4-0.7,18.2-7.6
					C522,242,515.5,243.5,511.3,250.2z"/>
				<path d="M487.2,286.4c3.6-1,7.5-0.8,11.5,0.2c-3.9,1.4-7.8,1.9-11.5,1.2c6.4,4.5,13,3.4,19.7-1.6
					C499.9,281.8,493.3,281.3,487.2,286.4z"/>
				<path d="M476.9,296.6c3.7-0.6,7.5-0.1,11.4,1.4c-4,1-7.9,1.1-11.5,0c5.9,5.2,12.6,4.7,19.7,0.4
					C489.9,293.4,483.4,292.1,476.9,296.6z"/>
				<path d="M465.5,305.7c3.8-0.3,7.5,0.7,11.2,2.6c-4.1,0.6-8,0.3-11.5-1.2c5.4,5.8,12,6,19.6,2.5
					C478.8,303.8,472.4,301.9,465.5,305.7z"/>
				<path d="M516.7,236.7c2.9-2.4,6.5-3.8,10.6-4.5c-3,2.9-6.3,4.9-10,5.8c7.7,1.5,13.3-2.1,17.3-9.4
					C526.5,227.4,520.2,229.6,516.7,236.7z"/>
				<path d="M494.4,108.6c-4.1-4.3-9.2-4.4-14.9-1.7c4.6,4.3,9.5,5.7,14.7,2.7c-2.9,0.2-5.7-0.5-8.5-1.8
					C488.8,107.4,491.7,107.6,494.4,108.6z"/>
				<path d="M521.9,193.8c-0.9-7.8-6.1-12-14.3-13.6c1.4,8.2,5.4,13.5,13.2,14.6c-3.2-2-5.6-5-7.5-8.7
					C517,188.1,520,190.6,521.9,193.8z"/>
				<path d="M500.8,117.9c-4.2-5.1-9.7-5.6-16.1-3.1c4.7,5.1,9.9,7,15.8,4.2c-3.1,0-6.2-1-9.2-2.7
					C494.8,116.1,498,116.5,500.8,117.9z"/>
				<path d="M487.6,100.3c-4.1-3.6-8.6-3.4-13.6-0.5c4.5,3.6,9,4.5,13.5,1.4c-2.6,0.4-5.2,0-7.9-1
					C482.5,99.6,485.1,99.5,487.6,100.3z"/>
				<path d="M520.7,222.7c2.6-2.7,6.1-4.4,10.1-5.5c-2.7,3.2-5.8,5.5-9.3,6.8c7.8,0.7,13-3.5,16.3-11.2
					C529.4,212.4,523.4,215.3,520.7,222.7z"/>
				<path d="M480.5,92.8c-3.9-3-7.9-2.4-12.2,0.5c4.3,2.9,8.3,3.4,12.2,0.4c-2.3,0.5-4.6,0.3-7.1-0.4
					C475.9,92.5,478.2,92.3,480.5,92.8z"/>
				<path d="M474,86.9c-2.9-1.9-5.7-1.4-8.6,0.9c3.1,1.8,6,2,8.6-0.3c-1.6,0.5-3.3,0.4-5,0C470.7,86.9,472.4,86.6,474,86.9z"/>
				<path d="M489.3,123.5c4.7,6,10.2,8.6,17,6.1c-3.4-0.3-6.7-1.7-9.8-3.8c3.8,0.1,7.3,0.8,10.2,2.6
					C502.6,122.4,496.6,121.3,489.3,123.5z"/>
				<path d="M521,208.1c-0.1-7.9-4.8-12.6-12.8-15c0.6,8.3,4,14,11.7,15.9c-2.9-2.4-5.1-5.6-6.6-9.5
					C516.7,201.9,519.4,204.7,521,208.1z"/>
				<path d="M494.9,132.9c4.1,6.4,9.4,9.5,16.4,7.6c-3.4-0.6-6.5-2.2-9.4-4.7c3.8,0.4,7.2,1.5,10,3.5
					C508.2,133,502.3,131.4,494.9,132.9z"/>
				<path d="M503,155c3,7.6,7.9,11.9,15.6,11.3c-3.5-1.3-6.4-3.7-9-6.8c3.9,1.2,7.2,3,9.7,5.7C516.9,157.8,511.1,154.9,503,155z"/>
				<path d="M521.4,179.5c-1.7-7.7-7.3-11.3-15.6-12.1c2.3,8,6.8,12.9,14.7,13.2c-3.4-1.7-6.1-4.4-8.4-7.9
					C516,174.3,519.1,176.5,521.4,179.5z"/>
				<path d="M498.8,142.8c3.7,7.1,8.9,10.8,16.4,9.5c-3.5-0.9-6.6-3-9.4-5.8c3.9,0.7,7.3,2.2,10.1,4.6
					C512.7,144.2,506.7,141.9,498.8,142.8z"/>
				<path d="M471.2,83.8c-1.5-0.7-2.7-1.9-3.7-3.4c1.7,0.7,3.1,1.6,4.1,2.9c-0.8-3.3-3.3-4.8-6.9-5.1
					C465.8,81.7,467.8,83.7,471.2,83.8z"/>
				<path d="M523.6,179.3c1.7-3.4,4.4-6.1,7.9-8.4c-1.6,3.8-3.8,7-6.8,9.3c7.7-1.7,11.3-7.3,12.1-15.6
					C528.8,166.8,523.9,171.4,523.6,179.3z"/>
				<path d="M521.5,164.7c1.3-3.4,3.7-6.4,6.9-9c-1.2,3.9-3,7.2-5.7,9.7c7.3-2.4,10.3-8.3,10.2-16.4
					C525.3,152.1,521,157,521.5,164.7z"/>
				<path d="M517.9,150.4c0.9-3.5,2.9-6.6,5.8-9.4c-0.8,3.9-2.2,7.3-4.6,10.1c6.9-3.1,9.2-9.1,8.2-17
					C520.3,137.8,516.6,143,517.9,150.4z"/>
				<path d="M513.6,138.6c0.6-3.4,2.2-6.5,4.7-9.5c-0.4,3.8-1.5,7.2-3.5,10c6.3-3.5,7.9-9.4,6.4-16.9
					C514.8,126.3,511.8,131.6,513.6,138.6z"/>
				<path d="M524.1,209.5c7.9-0.1,12.6-4.8,15-12.8c-8.3,0.6-14,4-15.9,11.7c2.4-2.9,5.6-5.1,9.5-6.6
					C530.3,205.2,527.5,207.9,524.1,209.5z"/>
				<path d="M524.1,193.8c2-3.2,5-5.6,8.7-7.5c-2,3.7-4.5,6.6-7.7,8.5c7.8-0.9,12-6.1,13.6-14.3C530.6,182,525.2,186,524.1,193.8z"
					/>
				<path d="M497.8,98.9c0.5,3.1,0.3,6-0.7,8.7c4.3-4.1,4.4-9.2,1.7-14.9c-4.3,4.6-5.7,9.5-2.7,14.7
					C495.7,104.6,496.4,101.8,497.8,98.9z"/>
				<path d="M508.5,127.4c0.3-3.4,1.7-6.7,3.8-9.8c0,3.8-0.8,7.3-2.6,10.2c6-4.1,7.1-10.1,4.9-17.4
					C508.6,115.1,506,120.7,508.5,127.4z"/>
				<path d="M482.3,84.3c0.8,2.5,1,4.8,0.5,7.1c3-3.9,2.4-7.9-0.5-12.2c-2.9,4.3-3.4,8.3-0.4,12.2C481.3,89.2,481.5,86.8,482.3,84.3
					z"/>
				<path d="M475.2,80.4c0.7,1.7,0.9,3.4,0.7,5c1.9-2.9,1.4-5.7-0.9-8.6c-1.8,3.1-2,6,0.3,8.6C474.8,83.9,474.8,82.2,475.2,80.4z"/>
				<path d="M490.1,91.2c0.6,2.8,0.7,5.5-0.1,7.9c3.6-4.1,3.4-8.6,0.5-13.6c-3.6,4.5-4.5,9-1.4,13.5
					C488.7,96.5,489.1,93.9,490.1,91.2z"/>
				<path d="M505.1,107.7c0.2,3.4-0.2,6.6-1.6,9.4c5.1-4.2,5.6-9.7,3.1-16.1c-5.1,4.7-7,9.9-4.2,15.8
					C502.4,113.7,503.4,110.7,505.1,107.7z"/>
				<path d="M510.1,132.1c-8.6-18.2-21.2-34.6-37.1-47.8c-0.5-0.4-0.7-0.1-0.7-0.1c0,0-0.2,0.3,0.2,0.7
					c15.8,13.1,28.3,29.4,36.9,47.5c25.3,53.5,13.5,117.6-29.6,159c-9,8.7-19.2,16.1-30.3,22.1c-0.4,0.3-1.5,0.9-1.1,1.6
					c0.3,0.6,1.4-0.1,1.9-0.3c11.2-6,21.5-13.5,30.6-22.2C524.3,250.7,535.6,186,510.1,132.1z"/>
			</g>
		</g>
	</g>
	<g id="swag">
		<g id="large-x-solid-line-svg">
			<line class="st0" x1="332.7" y1="134.7" x2="453.3" y2="255.3"/>
			<line class="st0" x1="332.7" y1="255.3" x2="453.3" y2="134.7"/>
		</g>
	</g>
	<g>
		<path d="M330.5,205.5v3.3c0,0.9,0.3,1.7,1,2.3s1.4,0.9,2.3,0.9c0.9,0,1.7-0.3,2.3-0.9c0.6-0.6,0.9-1.4,0.9-2.3v-6.5
			c0-0.9-0.3-1.7-0.9-2.3c-0.6-0.6-1.4-0.9-2.3-0.9c-2.9,0-5.4-1.1-7.3-3.3c-1.7-1.9-2.5-4-2.5-6.5v-6.5c0-2.7,1-5,2.9-6.9
			c1.9-1.9,4.2-2.9,6.9-2.9c2.7,0,5,1,6.9,2.9c1.9,1.9,2.9,4.2,2.9,6.9v3.2h-0.6H337v-3.2c0-0.9-0.3-1.7-0.9-2.3
			c-0.6-0.6-1.4-1-2.3-1c-0.9,0-1.7,0.3-2.3,1s-1,1.4-1,2.3v6.5c0,0.9,0.3,1.7,1,2.3s1.4,1,2.3,1c2.9,0,5.3,1.1,7.3,3.2
			c1.7,1.9,2.5,4,2.5,6.5v6.5c0,2.7-1,5-2.9,6.9s-4.2,2.9-6.9,2.9c-2.7,0-5-1-6.9-2.9c-1.9-1.9-2.9-4.2-2.9-6.9v-3.3H330.5z"/>
	</g>
	<g>
		<path d="M382.2,112.5h6.6l4.9,19.5l4.8-19.5h6.6l-8.1,32.6v13h-6.6v-13L382.2,112.5z"/>
	</g>
	<g>
		<path d="M444.4,172.6h6.5l6.5,22.8v-22.8h6.5v45.5h-6.5l-6.5-22.8v22.8h-6.5V172.6z"/>
	</g>
	<g>
		<path d="M386.6,235c1.9-1.9,4.2-2.9,6.9-2.9c2.7,0,5,1,6.9,2.9c1.9,1.9,2.9,4.2,2.9,6.9v26.2c0,0.9,0.3,1.7,1,2.3s1.4,0.9,2.3,0.9
			v6.5c-2.6,0-4.8-0.9-6.6-2.6c-1.8,1.6-3.9,2.3-6.4,2.3c-2.7,0-5-1-6.9-2.9s-2.9-4.2-2.9-6.9v-26C383.7,239.3,384.7,237,386.6,235z
			 M395.8,239.6c-0.6-0.6-1.4-1-2.3-1c-0.9,0-1.7,0.3-2.3,1s-0.9,1.4-0.9,2.3v26c0,0.9,0.3,1.7,0.9,2.3s1.4,0.9,2.3,0.9
			c0.9,0,1.7-0.3,2.3-0.9s1-1.4,1-2.3v-26C396.7,241,396.4,240.3,395.8,239.6z"/>
	</g>
	<g>
	</g>
</g>
<g id="Ebene_2">
</g>
</svg>
