<?xml version="1.0" encoding="utf-8"?>
<!-- Generator: Adobe Illustrator 19.1.0, SVG Export Plug-In . SVG Version: 6.00 Build 0)  -->
<!DOCTYPE svg PUBLIC "-//W3C//DTD SVG 1.1//EN" "http://www.w3.org/Graphics/SVG/1.1/DTD/svg11.dtd">
<svg version="1.1" id="Ebene_1" xmlns="http://www.w3.org/2000/svg" xmlns:xlink="http://www.w3.org/1999/xlink" x="0px" y="0px"
	 viewBox="346.9 26.8 292.2 258.9" style="enable-background:new 346.9 26.8 292.2 258.9;" xml:space="preserve">
<style type="text/css">
	.st0{fill:none;stroke:#000000;stroke-width:5;stroke-miterlimit:10;}
	.st1{fill:none;}
	.st2{font-family:'OSP-DIN';}
	.st3{font-size:65px;}
	.st4{font-family:'TrumpGothicPro';}
	.st5{font-size:20px;}
</style>
<g id="logo-graphic">
	<g id="base">
		<g id="laurel-svg">
			<g>
				<path d="M380.7,168.6c-7.3,4.1-11,9.6-9.4,17.3c0.9-3.7,2.9-7,5.8-10c-0.7,4.1-2.1,7.7-4.5,10.6
					C379.7,183.2,381.9,176.9,380.7,168.6z"/>
				<path d="M419.3,234.3c-3.5,7.5-3.3,14.2,2.5,19.6c-1.4-3.5-1.7-7.3-1.1-11.5c1.8,3.7,2.8,7.5,2.6,11.2
					C426.9,246.7,425.1,240.3,419.3,234.3z"/>
				<path d="M410.1,225.2c-4.3,7.1-4.7,13.8,0.4,19.7c-1.1-3.6-0.9-7.5,0-11.5c1.5,3.9,2,7.7,1.4,11.4
					C416.5,238.4,415.2,231.8,410.1,225.2z"/>
				<path d="M394.9,204.5c-5.7,6.1-7.5,12.5-3.6,19.4c-0.3-3.8,0.6-7.5,2.4-11.3c0.6,4.1,0.4,8-1,11.5
					C398.3,218.6,398.5,212,394.9,204.5z"/>
				<path d="M402,215.2c-5,6.7-6.2,13.2-1.6,19.7c-0.7-3.7-0.2-7.5,1.2-11.5c1,4,1.2,7.9,0.2,11.5C406.9,229,406.4,222.3,402,215.2z
					"/>
				<path d="M388.9,193c-6.3,5.5-8.7,11.7-5.6,18.9c0.1-3.8,1.4-7.4,3.6-11c0.2,4.2-0.4,8-2.2,11.3
					C390.9,207.5,391.8,200.9,388.9,193z"/>
				<path d="M384.2,181c-6.8,4.8-9.9,10.7-7.6,18.2c0.5-3.7,2.2-7.2,4.7-10.5c-0.2,4.2-1.3,7.9-3.3,11
					C384.7,195.6,386.2,189.1,384.2,181z"/>
				<path d="M433.8,261.6c-1.8-3.3-2.5-7.1-2.3-11.3c2.2,3.5,3.6,7.1,3.7,10.9c3-7.3,0.5-13.4-5.9-18.8
					C426.6,250.2,427.5,256.8,433.8,261.6z"/>
				<path d="M381,214.5c-3.8-0.1-7.4-1.4-11-3.6c4.2-0.2,8,0.4,11.3,2.2c-4.8-6.2-11.4-7.1-19.3-4.2
					C367.6,215.1,373.8,217.6,381,214.5z"/>
				<path d="M378.6,155.9c-7.7,3.3-11.9,8.4-11.2,16.3c1.2-3.6,3.6-6.6,6.8-9.3c-1.1,4-2.9,7.5-5.5,10.1
					C376.1,170.3,378.9,164.2,378.6,155.9z"/>
				<path d="M421.8,267.2c3.5-2.2,7.1-3.6,10.9-3.7c-7.3-3-13.5-0.5-18.8,5.9c7.9,2.7,14.5,1.8,19.2-4.5
					C429.8,266.7,426,267.4,421.8,267.2z"/>
				<path d="M389.2,226.6c-3.8,0.3-7.5-0.6-11.3-2.4c4.1-0.6,8-0.4,11.5,1c-5.4-5.7-12.1-5.9-19.6-2.2
					C375.9,228.7,382.3,230.5,389.2,226.6z"/>
				<path d="M374.1,201.5c-3.7-0.5-7.2-2.2-10.5-4.7c4.2,0.2,7.9,1.3,11,3.3c-4.2-6.7-10.6-8.2-18.7-6.2
					C360.7,200.8,366.6,203.9,374.1,201.5z"/>
				<path d="M398.6,237.8c-3.7,0.7-7.5,0.2-11.5-1.2c4-1,7.9-1.2,11.5-0.2c-6-5.1-12.7-4.6-19.7-0.2
					C385.6,241.3,392.2,242.4,398.6,237.8z"/>
				<path d="M397.7,248c3.9-1.5,7.7-2,11.4-1.4c-6.5-4.5-13.1-3.2-19.6,1.9c7.1,4.3,13.8,4.7,19.7-0.4
					C405.6,249.1,401.7,249,397.7,248z"/>
				<path d="M409.2,258.2c3.7-1.8,7.5-2.8,11.2-2.6c-6.9-3.8-13.3-1.9-19.3,3.9c7.5,3.5,14.2,3.3,19.6-2.5
					C417.2,258.5,413.4,258.8,409.2,258.2z"/>
				<path d="M368.6,188c-3.7-0.9-7-2.9-10-5.8c4.1,0.7,7.7,2.1,10.6,4.5c-3.4-7.1-9.7-9.3-18-8.1C355.3,185.8,360.9,189.5,368.6,188
					z"/>
				<path d="M391.6,58.6c2.7-1.1,5.6-1.2,8.7-0.7c-2.8,1.4-5.7,2.1-8.5,1.8c5.2,2.9,10.1,1.6,14.7-2.7
					C400.8,54.2,395.7,54.3,391.6,58.6z"/>
				<path d="M372.6,136.1c-1.9,3.7-4.3,6.7-7.5,8.7c7.8-1.1,11.8-6.4,13.2-14.6c-8.2,1.6-13.4,5.8-14.3,13.6
					C366,140.6,368.9,138.1,372.6,136.1z"/>
				<path d="M401.3,64.8c-6.4-2.5-11.9-2-16.1,3.1c2.8-1.4,6-1.8,9.4-1.6c-3,1.7-6,2.7-9.2,2.7C391.4,71.8,396.6,69.9,401.3,64.8z"
					/>
				<path d="M398.3,50.3c2.5-0.8,5.1-0.7,7.9-0.1c-2.7,1-5.3,1.5-7.9,1c4.5,3,9,2.1,13.5-1.4C407,46.9,402.4,46.7,398.3,50.3z"/>
				<path d="M364.5,173.9c-3.6-1.2-6.6-3.6-9.3-6.8c4,1.1,7.5,2.9,10.1,5.5c-2.7-7.4-8.7-10.3-17-9.9
					C351.5,170.4,356.7,174.6,364.5,173.9z"/>
				<path d="M405.5,42.8c2.3-0.5,4.6-0.3,7.1,0.5c-2.5,0.7-4.8,0.9-7.1,0.4c3.8,3,7.9,2.5,12.2-0.4
					C413.4,40.4,409.3,39.8,405.5,42.8z"/>
				<path d="M411.9,37.5c2.6,2.3,5.5,2.1,8.6,0.3c-2.9-2.3-5.7-2.8-8.6-0.9c1.6-0.3,3.3,0,5,0.7C415.2,37.9,413.5,38,411.9,37.5z"/>
				<path d="M396.6,73.5c-7.3-2.2-13.3-1.1-17.4,4.9c3-1.8,6.4-2.5,10.2-2.6c-3.1,2.2-6.4,3.6-9.8,3.8
					C386.4,82.1,392,79.5,396.6,73.5z"/>
				<path d="M366.1,159c7.7-1.9,11.1-7.6,11.7-15.9c-8,2.5-12.7,7.1-12.8,15c1.6-3.4,4.3-6.2,7.7-8.6
					C371.2,153.4,369.1,156.6,366.1,159z"/>
				<path d="M374.2,89.3c2.8-2,6.2-3.1,10-3.5c-2.9,2.4-6,4.1-9.4,4.7c7,1.9,12.3-1.2,16.4-7.6C383.6,81.4,377.7,83,374.2,89.3z"/>
				<path d="M366.6,115.1c2.5-2.7,5.8-4.5,9.7-5.7c-2.6,3.2-5.5,5.5-9,6.8c7.7,0.5,12.6-3.8,15.6-11.3
					C374.8,104.9,369,107.8,366.6,115.1z"/>
				<path d="M373.8,122.7c-2.3,3.5-5,6.2-8.4,7.9c7.9-0.3,12.4-5.2,14.7-13.2c-8.3,0.8-13.9,4.4-15.6,12.1
					C366.8,126.5,370,124.3,373.8,122.7z"/>
				<path d="M370.1,101.1c2.7-2.4,6.1-3.8,10.1-4.6c-2.8,2.8-5.9,4.9-9.4,5.8c7.5,1.3,12.7-2.4,16.4-9.5
					C379.2,91.9,373.2,94.2,370.1,101.1z"/>
				<path d="M418.4,30.4c-1,1.5-2.2,2.7-3.7,3.4c3.4,0,5.4-2.1,6.5-5.6c-3.6,0.3-6.1,1.8-6.9,5.1C415.3,32,416.7,31.1,418.4,30.4z"
					/>
				<path d="M361.2,130.2c-3-2.3-5.2-5.5-6.8-9.3c3.5,2.3,6.2,5,7.9,8.4c-0.3-7.9-5.2-12.4-13.2-14.7
					C349.9,122.9,353.5,128.5,361.2,130.2z"/>
				<path d="M363.3,115.5c-2.7-2.5-4.5-5.8-5.7-9.7c3.2,2.6,5.5,5.5,6.9,9c0.5-7.7-3.8-12.6-11.3-15.6
					C353,107.2,356,113.1,363.3,115.5z"/>
				<path d="M366.9,101.1c-2.4-2.7-3.8-6.1-4.6-10.1c2.8,2.8,4.9,5.9,5.8,9.4c1.3-7.4-2.4-12.7-9.5-16.4
					C357.7,92,360,98,366.9,101.1z"/>
				<path d="M371.1,89.1c-2-2.8-3.1-6.2-3.5-10c2.4,2.9,4.1,6,4.7,9.5c1.9-7-1.2-12.3-7.6-16.4C363.2,79.7,364.8,85.5,371.1,89.1z"
					/>
				<path d="M361.9,159.5c-3.4-1.6-6.2-4.3-8.6-7.7c3.9,1.5,7.1,3.6,9.5,6.6c-1.9-7.7-7.6-11.1-15.9-11.7
					C349.3,154.6,354,159.4,361.9,159.5z"/>
				<path d="M360.8,144.8c-3.2-1.9-5.7-4.9-7.7-8.5c3.7,1.9,6.7,4.3,8.7,7.5c-1.1-7.8-6.4-11.8-14.6-13.2
					C348.8,138.7,353,144,360.8,144.8z"/>
				<path d="M388.2,48.9c1.4,2.8,2.1,5.7,1.8,8.6c2.9-5.2,1.6-10.1-2.7-14.7c-2.8,5.7-2.7,10.7,1.7,14.9
					C387.9,55,387.7,52.1,388.2,48.9z"/>
				<path d="M376.2,77.8c-1.8-3-2.5-6.4-2.6-10.2c2.2,3.1,3.6,6.4,3.8,9.8c2.5-6.8-0.1-12.3-6.1-17
					C369.1,67.8,370.2,73.8,376.2,77.8z"/>
				<path d="M403.7,34.3c0.7,2.5,0.9,4.8,0.4,7.1c3-3.8,2.5-7.9-0.4-12.2c-2.9,4.2-3.5,8.3-0.5,12.2
					C402.7,39.2,402.9,36.8,403.7,34.3z"/>
				<path d="M410.7,30.4c0.4,1.8,0.5,3.5,0,5c2.3-2.6,2.1-5.5,0.3-8.6c-2.3,2.9-2.8,5.7-0.9,8.6C409.8,33.8,410.1,32.1,410.7,30.4z"
					/>
				<path d="M395.8,41.2c1,2.7,1.5,5.3,1,7.9c3-4.5,2.1-9-1.4-13.5c-2.9,5-3.2,9.5,0.5,13.6C395.1,46.6,395.2,44,395.8,41.2z"/>
				<path d="M382.4,67.1c-1.4-2.8-1.8-6-1.6-9.4c1.7,3,2.7,6,2.7,9.2c2.7-6,0.8-11.1-4.2-15.8C376.8,57.5,377.3,63,382.4,67.1z"/>
				<path d="M436.5,263.4c-11.1-6-21.3-13.4-30.3-22.1c-43.1-41.3-55-105.4-29.6-159c8.6-18.1,21.1-34.4,36.9-47.5
					c0.4-0.4,0.2-0.6,0.2-0.7c0,0-0.3-0.3-0.7,0.1c-15.9,13.2-28.5,29.5-37.1,47.8c-25.5,54-14.2,118.6,29.3,160.4
					c9.1,8.7,19.4,16.2,30.6,22.2c0.5,0.2,1.6,0.9,1.9,0.3C438,264.3,437,263.7,436.5,263.4z"/>
			</g>
			<g>
				<path d="M605.2,168.6c-1.2,8.2,1,14.5,8.1,18c-2.4-2.9-3.8-6.5-4.5-10.6c2.9,3,4.9,6.3,5.8,10
					C616.2,178.2,612.5,172.7,605.2,168.6z"/>
				<path d="M565.3,242.4c0.6,4.1,0.3,8-1.1,11.5c5.8-5.4,6-12,2.5-19.6c-5.8,6-7.7,12.4-3.9,19.3
					C562.5,249.9,563.5,246.1,565.3,242.4z"/>
				<path d="M575.8,225.2c-5.1,6.6-6.3,13.1-1.9,19.6c-0.6-3.7-0.1-7.5,1.4-11.4c1,4,1.1,7.9,0,11.5
					C580.6,239,580.1,232.4,575.8,225.2z"/>
				<path d="M591.1,204.5c-3.6,7.5-3.5,14.2,2.2,19.6c-1.4-3.5-1.6-7.4-1-11.5c1.8,3.8,2.7,7.5,2.4,11.3
					C598.6,217,596.8,210.6,591.1,204.5z"/>
				<path d="M584,215.2c-4.4,7.1-4.9,13.7,0.2,19.7c-1-3.6-0.8-7.5,0.2-11.5c1.4,3.9,1.9,7.8,1.2,11.5
					C590.2,228.5,589,221.9,584,215.2z"/>
				<path d="M602.7,212c3.1-7.3,0.7-13.4-5.6-18.9c-2.8,7.8-2,14.4,4.2,19.3c-1.7-3.3-2.4-7.2-2.2-11.3
					C601.3,204.5,602.6,208.2,602.7,212z"/>
				<path d="M601.8,181c-2,8.1-0.5,14.6,6.2,18.7c-2.1-3.1-3.1-6.9-3.3-11c2.5,3.3,4.2,6.8,4.7,10.5
					C611.7,191.7,608.6,185.8,601.8,181z"/>
				<path d="M554.5,250.3c0.1,4.2-0.5,8-2.3,11.3c6.3-4.7,7.2-11.3,4.5-19.2c-6.4,5.4-8.9,11.6-5.9,18.8
					C550.9,257.4,552.2,253.8,554.5,250.3z"/>
				<path d="M604.6,213.1c3.3-1.8,7.2-2.4,11.3-2.2c-3.5,2.2-7.2,3.5-11,3.6c7.2,3.1,13.4,0.7,18.9-5.6
					C616,206,609.4,206.8,604.6,213.1z"/>
				<path d="M618.5,172.2c0.7-7.9-3.5-13-11.2-16.3c-0.3,8.3,2.5,14.4,9.9,17c-2.7-2.6-4.5-6.1-5.5-10.1
					C614.9,165.6,617.3,168.6,618.5,172.2z"/>
				<path d="M553.2,263.5c3.8,0.1,7.4,1.5,10.9,3.7c-4.2,0.1-8-0.5-11.3-2.3c4.7,6.3,11.3,7.2,19.2,4.5
					C566.7,263,560.5,260.5,553.2,263.5z"/>
				<path d="M596.5,225.2c3.5-1.4,7.4-1.6,11.5-1c-3.8,1.8-7.5,2.7-11.3,2.4c6.9,3.8,13.3,2,19.4-3.6
					C608.6,219.3,602,219.5,596.5,225.2z"/>
				<path d="M611.3,200.2c3.1-2.1,6.9-3.1,11-3.3c-3.3,2.5-6.8,4.2-10.5,4.7c7.5,2.3,13.4-0.7,18.2-7.6
					C622,192,615.5,193.5,611.3,200.2z"/>
				<path d="M587.2,236.4c3.6-1,7.5-0.8,11.5,0.2c-3.9,1.4-7.8,1.9-11.5,1.2c6.4,4.5,13,3.4,19.7-1.6
					C599.9,231.8,593.3,231.3,587.2,236.4z"/>
				<path d="M576.9,246.6c3.7-0.6,7.5-0.1,11.4,1.4c-4,1-7.9,1.1-11.5,0c5.9,5.2,12.6,4.7,19.7,0.4
					C589.9,243.4,583.4,242.1,576.9,246.6z"/>
				<path d="M565.5,255.7c3.8-0.3,7.5,0.7,11.2,2.6c-4.1,0.6-8,0.3-11.5-1.2c5.4,5.8,12,6,19.6,2.5
					C578.8,253.8,572.4,251.9,565.5,255.7z"/>
				<path d="M616.7,186.7c2.9-2.4,6.5-3.8,10.6-4.5c-3,2.9-6.3,4.9-10,5.8c7.7,1.5,13.3-2.1,17.3-9.4
					C626.5,177.4,620.2,179.6,616.7,186.7z"/>
				<path d="M594.4,58.6c-4.1-4.3-9.2-4.4-14.9-1.7c4.6,4.3,9.5,5.7,14.7,2.7c-2.9,0.2-5.7-0.5-8.5-1.8
					C588.8,57.4,591.7,57.6,594.4,58.6z"/>
				<path d="M621.9,143.8c-0.9-7.8-6.1-12-14.3-13.6c1.4,8.2,5.4,13.5,13.2,14.6c-3.2-2-5.6-5-7.5-8.7
					C617,138.1,620,140.6,621.9,143.8z"/>
				<path d="M600.8,67.9c-4.2-5.1-9.7-5.6-16.1-3.1c4.7,5.1,9.9,7,15.8,4.2c-3.1,0-6.2-1-9.2-2.7C594.8,66.1,598,66.5,600.8,67.9z"
					/>
				<path d="M587.6,50.3c-4.1-3.6-8.6-3.4-13.6-0.5c4.5,3.6,9,4.5,13.5,1.4c-2.6,0.4-5.2,0-7.9-1C582.5,49.6,585.1,49.5,587.6,50.3z
					"/>
				<path d="M620.7,172.7c2.6-2.7,6.1-4.4,10.1-5.5c-2.7,3.2-5.8,5.5-9.3,6.8c7.8,0.7,13-3.5,16.3-11.2
					C629.4,162.4,623.4,165.3,620.7,172.7z"/>
				<path d="M580.5,42.8c-3.9-3-7.9-2.4-12.2,0.5c4.3,2.9,8.3,3.4,12.2,0.4c-2.3,0.5-4.6,0.3-7.1-0.4
					C575.9,42.5,578.2,42.3,580.5,42.8z"/>
				<path d="M574,36.9c-2.9-1.9-5.7-1.4-8.6,0.9c3.1,1.8,6,2,8.6-0.3c-1.6,0.5-3.3,0.4-5,0C570.7,36.9,572.4,36.6,574,36.9z"/>
				<path d="M589.3,73.5c4.7,6,10.2,8.6,17,6.1c-3.4-0.3-6.7-1.7-9.8-3.8c3.8,0.1,7.3,0.8,10.2,2.6
					C602.6,72.4,596.6,71.3,589.3,73.5z"/>
				<path d="M621,158.1c-0.1-7.9-4.8-12.6-12.8-15c0.6,8.3,4,14,11.7,15.9c-2.9-2.4-5.1-5.6-6.6-9.5
					C616.7,151.9,619.4,154.7,621,158.1z"/>
				<path d="M594.9,82.9c4.1,6.4,9.4,9.5,16.4,7.6c-3.4-0.6-6.5-2.2-9.4-4.7c3.8,0.4,7.2,1.5,10,3.5C608.2,83,602.3,81.4,594.9,82.9
					z"/>
				<path d="M603,105c3,7.6,7.9,11.9,15.6,11.3c-3.5-1.3-6.4-3.7-9-6.8c3.9,1.2,7.2,3,9.7,5.7C616.9,107.8,611.1,104.9,603,105z"/>
				<path d="M621.4,129.5c-1.7-7.7-7.3-11.3-15.6-12.1c2.3,8,6.8,12.9,14.7,13.2c-3.4-1.7-6.1-4.4-8.4-7.9
					C616,124.3,619.1,126.5,621.4,129.5z"/>
				<path d="M598.8,92.8c3.7,7.1,8.9,10.8,16.4,9.5c-3.5-0.9-6.6-3-9.4-5.8c3.9,0.7,7.3,2.2,10.1,4.6
					C612.7,94.2,606.7,91.9,598.8,92.8z"/>
				<path d="M571.2,33.8c-1.5-0.7-2.7-1.9-3.7-3.4c1.7,0.7,3.1,1.6,4.1,2.9c-0.8-3.3-3.3-4.8-6.9-5.1
					C565.8,31.7,567.8,33.7,571.2,33.8z"/>
				<path d="M623.6,129.3c1.7-3.4,4.4-6.1,7.9-8.4c-1.6,3.8-3.8,7-6.8,9.3c7.7-1.7,11.3-7.3,12.1-15.6
					C628.8,116.8,623.9,121.4,623.6,129.3z"/>
				<path d="M621.5,114.7c1.3-3.4,3.7-6.4,6.9-9c-1.2,3.9-3,7.2-5.7,9.7c7.3-2.4,10.3-8.3,10.2-16.4
					C625.3,102.1,621,107,621.5,114.7z"/>
				<path d="M617.9,100.4c0.9-3.5,2.9-6.6,5.8-9.4c-0.8,3.9-2.2,7.3-4.6,10.1c6.9-3.1,9.2-9.1,8.2-17
					C620.3,87.8,616.6,93,617.9,100.4z"/>
				<path d="M613.6,88.6c0.6-3.4,2.2-6.5,4.7-9.5c-0.4,3.8-1.5,7.2-3.5,10c6.3-3.5,7.9-9.4,6.4-16.9
					C614.8,76.3,611.8,81.6,613.6,88.6z"/>
				<path d="M624.1,159.5c7.9-0.1,12.6-4.8,15-12.8c-8.3,0.6-14,4-15.9,11.7c2.4-2.9,5.6-5.1,9.5-6.6
					C630.3,155.2,627.5,157.9,624.1,159.5z"/>
				<path d="M624.1,143.8c2-3.2,5-5.6,8.7-7.5c-2,3.7-4.5,6.6-7.7,8.5c7.8-0.9,12-6.1,13.6-14.3C630.6,132,625.2,136,624.1,143.8z"
					/>
				<path d="M597.8,48.9c0.5,3.1,0.3,6-0.7,8.7c4.3-4.1,4.4-9.2,1.7-14.9c-4.3,4.6-5.7,9.5-2.7,14.7
					C595.7,54.6,596.4,51.8,597.8,48.9z"/>
				<path d="M608.5,77.4c0.3-3.4,1.7-6.7,3.8-9.8c0,3.8-0.8,7.3-2.6,10.2c6-4.1,7.1-10.1,4.9-17.4C608.6,65.1,606,70.7,608.5,77.4z"
					/>
				<path d="M582.3,34.3c0.8,2.5,1,4.8,0.5,7.1c3-3.9,2.4-7.9-0.5-12.2c-2.9,4.3-3.4,8.3-0.4,12.2C581.3,39.2,581.5,36.8,582.3,34.3
					z"/>
				<path d="M575.2,30.4c0.7,1.7,0.9,3.4,0.7,5c1.9-2.9,1.4-5.7-0.9-8.6c-1.8,3.1-2,6,0.3,8.6C574.8,33.9,574.8,32.2,575.2,30.4z"/>
				<path d="M590.1,41.2c0.6,2.8,0.7,5.5-0.1,7.9c3.6-4.1,3.4-8.6,0.5-13.6c-3.6,4.5-4.5,9-1.4,13.5
					C588.7,46.5,589.1,43.9,590.1,41.2z"/>
				<path d="M605.1,57.7c0.2,3.4-0.2,6.6-1.6,9.4c5.1-4.2,5.6-9.7,3.1-16.1c-5.1,4.7-7,9.9-4.2,15.8
					C602.4,63.7,603.4,60.7,605.1,57.7z"/>
				<path d="M610.1,82.1c-8.6-18.2-21.2-34.6-37.1-47.8c-0.5-0.4-0.7-0.1-0.7-0.1s-0.2,0.3,0.2,0.7c15.8,13.1,28.3,29.4,36.9,47.5
					c25.3,53.5,13.5,117.6-29.6,159c-9,8.7-19.2,16.1-30.3,22.1c-0.4,0.3-1.5,0.9-1.1,1.6c0.3,0.6,1.4-0.1,1.9-0.3
					c11.2-6,21.5-13.5,30.6-22.2C624.3,200.7,635.6,136,610.1,82.1z"/>
			</g>
		</g>
	</g>
	<g id="swag">
		<g id="large-x-solid-line-svg">
			<line class="st0" x1="432.7" y1="84.7" x2="553.3" y2="205.3"/>
			<line class="st0" x1="432.7" y1="205.3" x2="553.3" y2="84.7"/>
		</g>
	</g>
	<rect x="421.2" y="123" class="st1" width="55" height="73"/>
	<text transform="matrix(1 0 0 1 421.1911 168.4851)" class="st2 st3">S</text>
	<rect x="483" y="62.5" class="st1" width="54" height="56"/>
	<text transform="matrix(1 0 0 1 481.9999 108.056)" class="st2 st3">Y</text>
	<rect x="541.6" y="120.6" class="st1" width="57" height="61"/>
	<text transform="matrix(1 0 0 1 541.5682 166.0864)" class="st2 st3">N</text>
	<rect x="481" y="182.2" class="st1" width="42" height="69"/>
	<text transform="matrix(1 0 0 1 481 227.6901)" class="st2 st3">Q</text>
	<text transform="matrix(1 0 0 1 474.0903 281.127)" class="st4 st5">est. 2015</text>
</g>
<g id="Ebene_2">
</g>
</svg>
